<svg width="49" height="149" xmlns="http://www.w3.org/2000/svg" xmlns:xlink="http://www.w3.org/1999/xlink" xml:space="preserve" overflow="hidden"><g><path d="M21.4628 19.5899C21.4628 19.5899 28.0504 20.9337 29.0497 23.2799 29.0497 23.2799 29.0092 24.0503 29.2523 24.2068 29.4955 24.3632 30.7296 24.7049 30.7296 24.7049 31.172 25.028 31.1528 25.3179 31.0307 25.852L30.8105 26.9064 33.4531 28.4674C33.4531 28.4674 38.2224 31.1751 38.9308 33.2964 39.5615 35.1854 39.7619 40.5673 39.871 42.9315 40.0215 46.1977 40.6454 50.0804 40.826 50.8329 41.0066 51.5853 42 54.6626 42 54.6626L42.8596 57.8126C42.8866 57.9117 42.8005 58.005 42.6995 57.9861L42.4068 57.9062C42.3377 57.8873 42.3024 57.9263 42.3287 57.9932L42.4932 58.4114C42.7345 58.9681 42.7828 59.4987 42.8488 60.1015L43.0458 62.9982 44.2031 72.9669 44.5405 79.2308 45.0525 81.2447C45.0525 81.2447 46.3941 86.5142 40.0795 88.9133 39.8837 88.9877 39.5033 88.6485 39.6046 88.4651L40.3843 87.5792C40.3843 87.5792 38.9791 87.217 40.7863 86.0898 40.7863 86.0898 40.427 85.2556 41.2962 85.0239 41.2962 85.0239 40.8443 84.1203 42.5245 83.9462L42.6289 83.4595C42.6676 82.8403 42.4944 82.1783 42.1654 81.652L41.7689 81.1697C41.6646 81.0027 41.4158 81.0213 41.3374 81.2019L40.1671 83.9025C40.1671 83.9025 39.792 84.803 39.204 84.8036 38.8961 84.8039 38.6802 84.4969 38.7669 84.2014L39.2629 82.5129 39.5699 80.9563C39.6328 80.5071 39.5621 80.008 39.5253 79.5561L39.3382 77.9205C39.3382 77.4242 39.6049 76.9729 39.9754 76.6424L40.6943 76.038C41.238 75.5997 41.3371 74.8488 41.0763 74.2014 41.0763 74.2014 38.1155 66.7371 37.7509 65.8475 36.9545 63.9027 36.43 61.9543 36.43 61.9543L35.677 62.8579 36.1441 66.1922 36.3895 69.2172C36.4068 70.3196 36.1708 70.8078 36.1869 70.9454L37.2277 78.334C37.2277 78.334 37.561 82.8573 37.4417 85.933 37.3225 89.0088 36.8615 91.9488 36.2532 96.6412L35.8275 103.614 35.9598 119.184 35.7535 127.754 36.6912 128.214C36.8098 128.293 37.0437 128.508 37.0096 128.646 37.0096 128.646 36.917 129.573 36.6967 130.442 36.4765 131.311 36.1695 131.637 36.1986 131.844 36.2278 132.052 38.0176 133.826 38.0176 133.826 38.0176 133.826 40.4797 136.079 42.1308 136.166 43.7818 136.253 45.9196 136.293 46.6305 137.508 47.0688 138.257 47.0806 139.889 47.1246 140.736 47.1416 141.066 46.6739 141.529 46.3483 141.588L41.9802 142.307C40.3118 142.585 38.67 142.432 37.9845 142.307L29.3611 140.747C29.3611 140.747 26.1998 140.513 27.6942 137.603L28.4011 131.473 28.2158 131.439C27.7772 131.247 27.7676 131.035 27.6496 130.571L27.2772 129.104C27.1948 128.78 27.3141 128.437 27.5805 128.234L28.0538 127.874 28.0538 127.874C28.227 126.575 28.2468 125.26 28.113 123.957L27.7633 120.552 27.2391 115.998C27.0006 114.534 26.9142 113.05 26.9817 111.568L27.1412 108.061C27.1412 108.061 27.3816 105.138 26.9182 101.499 26.5561 98.6563 25.4902 91.6375 25.4902 91.6375L24.6494 87.7938C24.5869 87.5076 24.1907 87.4779 24.0856 87.7511L21.2711 95.0871C21.1998 95.2897 19.9914 99.65 19.9431 99.8591L18.2808 107.082C18.2177 107.356 17.4076 110.683 16.7741 112.217 16.1137 113.816 15.2361 117.316 15.2361 117.316L13.362 129.422 13.6364 129.711C13.7789 129.733 13.8753 129.868 13.8499 130.01 13.8499 130.01 13.7792 131.369 13.5937 131.972 13.4081 132.574 13.0231 132.893 12.6182 133.012L11.7279 133.273 12.5857 136.868C12.5857 136.868 13.1504 139.431 12.1948 140.213 12.1948 140.213 13.756 142.353 13.8458 144.037 13.8818 144.71 14.011 147.405 8.50167 147.165 8.43352 147.187 3.43227 147.463 4.06978 143.516 4.06978 143.516 4.32874 141.953 4.32472 141.009 4.32286 140.56 4.97369 137.579 5.04308 137.069 5.32838 134.978 5.54707 133.261 5.54707 133.261 5.54707 133.261 4.25533 133.223 4.28692 130.524 4.28692 130.524 4.25223 129.13 5.42533 129.434 5.42533 129.434 6.16104 126.468 6.16693 124.591 6.17281 122.713 6.2422 118.768 6.43333 116.839 6.62446 114.91 7.70215 109.418 8.24085 107.698 8.63023 106.454 10.5177 99.423 10.8652 97.8608 11.2128 96.2983 11.3259 92.5061 11.3259 92.5061 11.3259 92.5061 10.8826 88.055 10.8479 84.8591 10.8132 81.6631 11.3444 76.9156 11.3444 76.9156L12.8032 67.2619 13.3332 64.7871 14.2021 62.1454C14.2021 62.1454 13.5937 61.2938 13.4896 60.8419 13.3852 60.3899 13.3852 59.8859 13.3852 59.8859L11.5777 58.7388C11.0313 58.3361 10.7596 57.6066 10.6914 56.9313L10.0202 50.6547C9.99911 50.4577 9.73147 50.4147 9.64969 50.5953L9.0035 52.0211C8.93225 52.155 8.81733 52.3424 8.67577 52.3953L6.55538 53.1949C6.55538 53.1949 3.32261 54.2202 2.31461 49.1105 2.31461 49.1105 1.26325 46.6512 3.04443 44.0879L3.60047 41.8634C3.60047 41.8634 4.27825 40.2994 4.6983 39.1012 5.94916 35.5323 7.84124 31.1924 7.84124 31.1924L9.6661 27.8382 10.1181 27.595C10.1181 27.595 9.85723 26.5 9.31854 25.6658 8.77985 24.8316 7.09562 20.6218 8.34524 20.6605 8.52057 20.6658 8.85729 20.8399 8.97098 20.9734L9.20455 21.3838C9.2981 21.5118 9.50069 21.4396 9.49201 21.2813 9.44152 20.3566 9.38359 18.5126 9.67416 17.8413 9.74695 17.6734 9.99136 17.6412 10.1472 17.735 10.5121 17.9553 10.5294 18.104 10.6106 18.0999 10.6918 18.0959 10.5824 17.4999 10.7958 17.0628 10.9213 16.806 11.4024 16.7933 11.5257 17.0514L11.5895 17.1325C11.7899 17.552 11.9095 17.9859 11.9429 18.4475 11.9903 19.1014 12.0005 20.0478 12.0473 20.707 12.0811 21.1853 12.1948 22.1434 12.3543 22.5956L12.7009 23.2267C12.7635 23.3642 13.0618 23.4255 13.0206 22.8574L13.0206 22.8574C13.0206 22.8574 12.8648 21.6772 12.8527 20.4465 12.8428 19.4608 12.8422 18.4621 12.9859 17.9379 13.0748 17.6145 13.3948 17.6632 13.577 17.88 13.7446 18.0795 13.778 18.4367 13.778 18.4367 13.778 18.4367 14.3071 21.2689 14.3938 22.3525 14.4806 23.4357 14.8514 24.5605 14.8514 24.5605 14.9963 25.3185 15.1072 25.124 15.6568 25.0289L17.6381 24.5308 17.9162 24.3338C18.2406 23.0244 18.9599 23.3255 18.9599 23.3255 19.6612 21.5756 20.4582 21.0273 21.3426 21.0273L21.4628 19.5899Z" fill="#FFFFFF" transform="scale(1.00752 1)"/><path d="M27.5393 67.5001C27.297 67.2737 27.0567 67.4481 26.7466 67.313 26.6292 67.2678 26.4907 67.3585 26.4861 67.4846 26.4523 68.0022 26.3705 68.5301 26.3079 69.0468 26.1159 69.68 26.5022 70.135 27.166 70.1226 27.5284 70.2044 27.5504 68.4495 27.6043 68.1769 27.6502 67.8319 27.6527 67.6321 27.5393 67.5001Z" fill="#FFFFFF" transform="scale(1.00752 1)"/><path d="M13.4438 143.525C11.5703 145.612 8.26532 146.04 5.68368 144.797 5.20633 144.575 4.72897 144.309 4.47 143.864 3.76806 143.29 4.03105 145.609 4.8061 146.068 6.35837 147.636 12.3599 147.569 13.392 145.582 13.5652 145.248 13.7929 143.701 13.4438 143.525Z" fill="#FFFFFF" transform="scale(1.00752 1)"/><path d="M46.9988 140.047C46.9867 139.843 46.9053 139.488 46.6373 139.669 46.2814 139.968 45.796 140.12 45.4503 140.194 38.635 141.682 38.9599 141.094 32.4569 139.558 30.8879 139.24 29.2375 138.758 27.8125 138.149 27.7444 137.984 27.4764 138.011 27.4448 138.189 27.3376 138.662 27.2289 139.538 27.7056 140.086 27.96 140.375 28.3648 140.459 28.722 140.532 31.8767 141.271 35.1107 141.798 38.2348 142.296 40.3638 142.622 42.2417 142.121 44.428 141.875 45.2263 141.74 46.0463 141.667 46.7953 141.307 47.1466 141.047 47.079 140.434 46.9988 140.047Z" fill="#FFFFFF" transform="scale(1.00752 1)"/><path d="M37.3339 86.9131C37.6096 82.782 37.4628 78.6082 36.6308 74.0099 36.5691 72.8935 36.202 71.3794 36.1754 70.924 36.1683 70.7607 36.2742 70.3838 36.3129 70.0836 36.501 67.7746 35.931 65.621 35.7482 63.3377 35.7396 63.229 35.7142 63.0821 35.6135 63.0682 35.5447 63.0589 35.506 63.1075 35.4617 63.1611 34.6922 64.0973 33.9516 64.8977 33.1982 65.608 31.5707 66.4995 29.6882 66.2746 27.754 65.6762 27.6632 65.6492 27.5585 65.6988 27.5223 65.7861 27.0691 65.8719 25.7485 65.4637 25.2334 65.3676 23.0947 64.8708 20.9759 64.3891 18.826 63.886 17.9413 63.6862 17.0644 63.4628 16.1759 63.2776 15.4954 63.141 14.7919 62.9994 14.3393 62.523 13.9654 62.2634 13.936 63.001 13.8716 63.2249 13.8415 63.3612 14.861 63.6307 14.9802 63.7057 14.8015 64.4585 14.6224 65.2254 14.3725 65.9159 14.3291 66.0355 14.185 66.081 14.0791 66.0107 13.8384 65.8506 13.5829 65.7263 13.3335 65.6052 13.2204 65.5454 13.068 65.6269 13.0544 65.7539 11.9373 73.6757 10.3724 81.7539 11.1638 89.8427 11.5396 93.2759 11.1422 96.6025 10.4374 99.8901 8.88207 107.144 5.83021 114.207 6.28464 121.802 6.315 124.348 6.13843 126.935 5.47397 129.382 5.27417 129.362 5.10658 129.348 5.0818 129.349 4.30303 129.441 4.47681 130.287 4.48518 130.719 4.49695 131.864 4.23922 133.041 6.01731 133.18 7.61449 133.427 9.25132 133.457 10.8646 133.278 13.3053 133.014 13.4921 132.913 13.7783 130.451 13.7548 130.187 14.006 129.655 13.6284 129.563 13.4199 129.528 13.3322 129.419 13.3499 129.281 14.2647 123.33 14.8569 117.152 17.0176 111.454 18.634 107.3 18.9561 103.032 20.1113 98.975 21.2838 94.8554 22.6846 90.9442 24.2303 87.4348 24.243 87.4063 24.3923 86.9163 24.5017 87.3803 25.3254 90.8761 26.2389 95.3854 26.768 99.9136 27.1195 102.924 27.3478 105.988 27.1676 108.899 27.0904 110.23 27.0111 111.605 27.0554 112.966 27.1502 115.885 27.7623 120.296 28.0715 123.619 28.3109 126.193 28.2403 128.003 28.1409 127.93 28.0752 127.892 27.8333 128.064 27.7713 128.107 27.1623 128.533 27.297 128.981 27.4399 129.455 27.5359 129.796 27.6505 130.214 27.7431 130.559 27.8382 131.328 28.3134 131.389 29.0116 131.46 30.5363 131.679 32.0629 131.727 33.7093 131.733 34.4348 131.733 35.1947 131.718 35.9951 131.69 36.2984 131.648 36.3972 131.272 36.4641 131.017 36.6215 130.444 37.1803 128.395 36.6881 128.274 36.3439 128.034 35.6835 127.93 35.7011 127.478 35.7845 125.312 36.0087 123.085 36.014 120.874 36.0239 116.836 35.7541 112.807 35.7476 109.005 35.642 106.11 35.7222 103.435 35.9214 100.84 36.2947 95.9582 37.0313 91.4482 37.3339 86.9131ZM24.7864 69.5976C24.7823 69.6013 24.7764 69.6056 24.7718 69.6081 21.4442 69.2128 18.1318 68.1565 15.3368 66.4552 15.5595 65.7133 15.6781 64.845 16.0335 64.1722 17.3847 64.6034 18.9509 65.2261 20.3922 65.5185 21.2927 65.7629 24.2542 66.1417 24.8461 66.6817 24.9945 66.7523 24.9899 66.787 25.0924 66.8991 25.0147 67.7835 24.9118 68.6912 24.7864 69.5976ZM32.1911 70.5501C30.8411 70.7112 29.4837 70.7099 28.1533 70.5467 27.5517 70.5067 27.8645 70.1517 27.5176 70.091 27.4557 70.0882 27.399 70.1257 27.3578 70.1678 26.6676 70.1691 26.3603 69.9643 26.2537 69.6384 26.1664 69.3711 26.483 67.2752 26.552 67.1888 26.6286 67.251 27.2887 67.2675 27.5006 67.3684 27.6511 67.4499 27.697 67.5797 27.6821 67.883 27.6657 68.0874 27.9643 68.167 28.0516 67.9812 28.0792 67.9273 28.1074 67.7904 28.1694 67.6098 28.2174 67.4697 28.4153 67.2888 28.5634 67.2854 29.7898 67.2566 32.7921 67.4394 32.7871 67.58 32.7679 68.2708 32.3435 70.5287 32.1911 70.5501ZM35.6212 68.045C35.6212 68.5245 35.3743 68.8656 34.9447 69.1159 34.6445 69.3132 34.2852 69.526 33.902 69.6112 33.7298 68.9319 33.7933 68.1423 33.9807 67.5239 34.002 67.4682 33.9909 67.3697 33.9593 67.2842 33.9147 67.1628 33.9008 67.033 34.0086 66.9611 34.3363 66.7433 34.9936 66.3651 35.4831 66.1879 35.8724 66.6383 35.6878 67.4282 35.6212 68.045Z" fill="#FFFFFF" transform="scale(1.00752 1)"/><path d="M47.3334 140.037C47.2829 139.726 47.2206 139.409 47.2847 139.095 47.2984 139.028 47.2884 138.969 47.2637 138.919 47.4133 138.002 46.7959 136.913 45.6572 136.384 44.5953 135.87 43.4318 136.079 42.3064 135.876 39.8422 135.435 38.03 133.604 36.4263 131.81 36.663 131.581 36.8129 131.138 37.0013 130.289 37.0827 129.921 37.1397 129.548 37.1753 129.173 37.241 128.736 37.347 128.001 36.7252 127.962 36.4709 127.864 36.2463 127.643 35.9858 127.577 36.6717 117.776 35.55 107.935 36.3755 98.1386 37.552 89.4195 38.4767 80.5601 36.6113 71.8573 36.5626 71.6005 36.5096 71.3447 36.4545 71.0894 36.8067 70.5263 36.5394 67.3963 36.4632 67.1336 36.3836 66.8412 36.0187 62.4669 35.6287 63.1853 35.5856 65.2065 36.1407 67.1937 36.1587 69.2144 36.1612 69.5 36.1525 69.7865 36.1261 70.0712 35.9675 70.0114 35.7399 70.1424 35.7845 70.3649 35.9713 71.2926 36.1429 72.2219 36.2968 73.1528 36.3012 73.1791 36.286 73.1931 36.2739 73.1732 36.1692 73.0007 36.0729 72.8238 35.9905 72.642 35.7619 72.1371 35.651 71.5869 35.651 71.034 35.651 70.8078 35.3102 70.8094 35.3006 71.034 35.2554 72.1129 35.607 73.3117 36.4378 74.0366 36.9 77.051 37.1732 80.0842 37.1896 83.1491 37.2661 87.4627 36.6342 91.7323 36.0763 95.9972 34.726 107.036 36.5075 118.243 35.2792 129.262 35.1473 129.457 34.8325 129.439 34.6275 129.449 34.0882 129.477 33.547 129.487 33.0071 129.485 31.4477 129.483 29.8908 129.338 28.3552 129.069 28.884 123.662 27.4333 118.349 27.2577 112.962 27.5071 107.379 27.6124 101.824 26.4511 96.3153 25.9972 93.2848 25.5444 90.2097 24.682 87.2632 25.4768 85.5489 26.3383 83.865 27.2676 82.2179 27.4364 81.9184 26.9755 81.6492 26.807 81.9488 22.0917 90.0372 19.4806 99.0407 17.7812 108.193 15.2946 114.72 14.1321 121.549 13.2588 128.455 13.221 128.703 13.2031 128.982 13.1644 129.255 13.0826 129.336 13.0476 129.452 13.1111 129.552 13.0773 129.701 13.0327 129.844 12.9686 129.974 11.8847 131.136 7.152 130.899 5.27417 130.52 6.80072 126.825 6.35124 122.742 6.56529 118.836 6.74775 109.86 11.5086 101.672 11.5557 92.7307 10.5771 84.0657 11.6889 75.42 13.1129 66.8685 13.1671 66.5067 13.2117 66.1433 13.2567 65.7799 13.5677 65.9534 13.9063 66.0897 14.1795 66.3233 14.3 66.4147 14.4645 66.3121 14.5041 66.1913 14.7649 65.3958 14.9867 64.5923 15.1779 63.7773 15.2045 63.6639 15.1435 63.5341 15.0236 63.5053 14.7318 63.4545 14.4998 63.2668 14.2312 63.1617 14.181 63.1469 14.1367 63.1497 14.0992 63.1639 14.1104 63.1125 14.1219 63.0611 14.1324 63.0093 14.1519 62.9087 14.1832 62.7891 14.2039 62.6686 14.4115 62.8901 14.6612 63.0502 14.9685 63.1658 18.3533 64.0554 21.7977 64.7475 25.2024 65.5693 25.9793 65.749 26.7519 65.9723 27.5526 66.0008 27.639 65.9618 27.6886 65.9218 27.7081 65.8819 28.6864 66.1842 30.3721 66.4357 30.5456 66.4159 31.3597 66.4565 32.2097 66.3378 32.9274 65.9327 33.1601 65.831 33.6746 65.3593 33.4082 65.1629L36.3393 62.1665C37.2553 66.0274 39.2335 69.5768 40.4976 73.3337 40.6621 73.9619 41.1974 74.8011 40.9388 75.4411 40.436 75.99 39.656 76.305 39.2936 76.9875 38.797 77.9815 39.3239 79.0685 39.3344 80.1031 39.34 80.9386 39.2158 81.7803 38.9983 82.5785 38.9169 82.8771 38.8134 83.1683 38.6963 83.4546 38.5281 83.8653 38.394 84.3039 38.6145 84.7255 39.17 85.6453 40.2192 84.8079 40.4258 84.0493 40.6631 83.4762 40.8102 82.8728 41.0909 82.3174 41.2643 81.9742 41.3548 81.5433 41.5964 81.2347 42.2819 81.9974 42.509 82.9772 42.399 83.9502 42.3553 83.8653 42.2646 83.8009 42.1466 83.8185 41.7693 83.8755 41.3619 83.9731 41.1475 84.3216 41.0453 84.488 41.0029 84.7225 41.0692 84.8941 40.8951 84.9957 40.7362 85.1146 40.6138 85.2633 40.4025 85.4656 40.3799 85.8801 40.523 86.1356 40.0448 86.4234 39.6408 86.7766 39.6916 87.113 39.7842 87.2716 39.9075 87.4559 40.0606 87.5882 39.6033 87.9961 39.0448 88.6305 39.5401 89.0159 40.3744 89.3638 41.2752 88.7266 41.921 88.2607 44.4785 86.7356 45.5522 84.5518 45.3648 81.5928 44.854 79.9012 44.67 78.1531 44.6684 76.3837 44.4339 72.5621 44.0513 68.7401 43.574 64.9414 43.0715 62.694 43.5529 60.2397 42.6664 58.0923L42.8346 58.1868 41.3303 52.5654C41.396 52.6289 41.0794 50.7278 40.8709 49.8722 40.8672 49.854 40.8619 49.8255 40.8582 49.8072L40.5258 47.549C40.0906 43.999 40.0187 40.409 39.7285 36.8451 39.7025 33.2127 38.6176 31.2838 35.4849 29.4168 34.2375 28.6133 32.9587 27.8559 31.6806 27.1025 31.5013 27.0037 31.216 26.7676 30.9988 26.8516 30.9966 26.8525 30.9948 26.8535 30.9923 26.8544 30.9712 26.8417 30.9505 26.829 30.9291 26.8163L31.0075 25.9737C31.2005 25.6831 31.3126 25.3607 31.259 24.9787 30.8185 24.5072 30.3793 24.0144 29.8929 23.5875 29.7049 23.4265 29.3217 23.4698 29.3446 23.384 29.4199 23.0953 28.9946 22.9826 28.9007 23.2617 28.5841 24.2015 28.7759 25.2151 29.1135 26.1221 29.1839 26.3021 29.2898 26.7144 29.5054 26.8098 29.5317 26.8215 29.5416 26.8519 29.5218 26.8727 29.2808 27.1233 29.0708 27.394 28.9599 27.7261 28.8698 27.9686 28.9181 28.2734 28.7366 28.4658 28.6461 28.6102 27.7704 29.318 27.3835 29.7954L27.2654 29.5122C27.3444 29.4682 27.3928 29.3821 27.3497 29.27 27.0858 28.5817 26.8222 27.893 26.5582 27.2047 26.0127 25.8043 25.8944 24.7009 24.3353 24.1008 23.3679 23.5866 22.4197 23.038 21.4786 22.477 21.4368 22.4581 21.3383 22.3965 21.2153 22.3209 21.2221 22.3125 21.2289 22.3051 21.2351 22.2955 21.6409 21.552 21.6583 20.6246 21.6666 19.795 21.6592 19.5425 21.2881 19.5441 21.2754 19.795 21.2683 20.1698 21.2079 20.536 21.1239 20.8972 21.1153 20.8947 21.1063 20.8928 21.097 20.8919 20.1416 20.869 19.4149 21.7593 18.9942 22.529 18.9072 22.7047 18.8081 22.9287 18.8174 23.1325 18.476 23.0885 18.1331 23.2951 17.9494 23.8087 17.8822 23.9534 17.8174 24.0993 17.7542 24.2458 17.4082 24.2003 16.6768 24.5339 16.4433 24.558 16.2472 24.6479 15.527 24.6993 15.2442 24.8945 14.659 23.0584 14.414 20.465 14.2876 19.729 14.2058 19.2114 14.1522 18.6334 13.9629 18.1427 13.748 17.4702 12.8645 17.166 12.7431 18.073 12.5993 19.7024 12.6551 21.3417 12.8453 22.9646 11.9485 21.6617 12.4302 19.5044 12.0885 17.9993 12.0027 17.5405 11.8701 16.7072 11.2943 16.6347 10.7125 16.5833 10.43 17.1037 10.3959 17.6164 10.1664 17.4469 9.90246 17.3785 9.63575 17.5185 9.35293 17.8276 9.41085 18.318 9.33341 18.7086 9.29562 19.1528 9.25039 20.11 9.29314 21.014 8.7752 20.1893 7.43358 20.3225 7.73375 21.5973 7.93169 22.9612 8.2489 24.3205 8.95982 25.5162 9.27424 26.0796 9.59486 26.6354 9.79373 27.2527 9.82718 27.3568 9.85847 27.4618 9.88759 27.5672 9.84701 27.5582 9.7928 27.5588 9.72217 27.5709 9.01558 28.1111 8.70148 29.0473 8.25819 29.7972 6.70376 32.8305 5.55389 36.041 4.4573 39.257 4.03508 40.182 3.50568 41.0617 3.2526 42.0552 2.99146 42.9377 2.75387 43.8237 2.40475 44.6765 1.99338 45.3781 1.71644 46.1463 1.70312 46.9808 1.99864 51.3935 3.92511 55.433 8.85667 52.5958 9.59641 52.2953 9.26092 51.5974 9.68593 51.0382 9.72403 50.9664 9.76461 50.8945 9.80612 50.822 9.83276 51.6203 9.94366 52.4226 10.0254 53.2107 10.2376 54.7592 10.255 56.3524 10.6025 57.8755 10.8163 58.5604 11.9185 59.3677 13.186 60.0941 12.8577 60.6322 13.7328 61.9248 13.9645 62.357 13.9676 62.3616 13.9707 62.3663 13.9738 62.3709 13.8728 62.5286 13.8186 62.7454 13.7597 62.9065 13.4896 63.6809 13.2681 64.4718 13.0293 65.2561 13.025 65.271 13.0222 65.2855 13.02 65.2998 12.9992 65.3184 12.9838 65.3438 12.9772 65.3766 11.8001 71.6455 10.8352 77.9955 10.6722 84.3805 10.5242 88.7578 11.5594 93.1312 10.7091 97.477 9.30026 103.927 6.84997 110.156 6.22269 116.773 5.70723 120.913 6.41939 125.282 5.17132 129.293 5.14375 129.242 5.09295 129.204 5.0186 129.199 3.74823 129.198 4.18408 131.254 4.1974 132.079 4.27113 132.61 4.52607 133.065 5.03224 133.289 5.12021 133.313 5.2088 133.337 5.29771 133.359 4.96904 134.606 4.98298 135.912 4.75592 137.179 4.56727 138.02 4.36592 138.857 4.24387 139.711 4.14102 140.163 4.02796 140.582 4.03043 141.051 3.6934 144.927 2.93446 146.753 7.69782 147.481 9.3585 147.62 12.3243 147.429 13.4977 146.139 14.5772 144.362 13.778 141.892 12.5532 140.369L12.5677 140.28C13.8768 138.511 12.1982 135.552 11.9999 133.567 12.148 133.548 12.3128 133.536 12.4206 133.436 12.4395 133.411 12.4503 133.388 12.4553 133.366 12.512 133.356 12.5687 133.345 12.6253 133.334 13.9205 133.158 14.0401 131.28 14.1522 130.239 14.1987 129.885 14.1287 129.422 13.7161 129.38 13.6944 129.338 13.6702 129.301 13.6445 129.272 14.3269 124.887 14.8247 120.464 15.8169 116.134 16.7983 112.317 18.4689 108.717 19.0553 104.794 20.1782 98.9611 21.9659 93.2514 24.4174 87.8406 26.092 95.8147 27.4838 103.892 26.7395 112.057 26.7441 117.315 28.2047 122.517 27.9166 127.771 26.6629 128.431 27.0173 128.974 27.3429 130.235 27.4776 130.785 27.5557 131.53 28.227 131.648 28.288 131.659 28.2676 131.74 28.2558 131.775 27.7506 133.549 27.6359 135.439 27.5653 137.286 27.5489 137.299 27.5337 137.314 27.5216 137.335 26.9848 138.276 26.7763 139.859 27.7961 140.547 30.1627 141.388 32.7196 141.666 35.1817 142.146 36.4966 142.362 37.8088 142.612 39.1328 142.767 41.5725 142.664 44.0464 142.415 46.418 141.813 47.3619 141.658 47.513 140.851 47.3334 140.037ZM41.6094 84.5137C41.7587 84.3309 42.0493 84.2934 42.2658 84.2507 42.3058 84.2429 42.3374 84.2278 42.3622 84.2079 42.3377 84.3492 42.3061 84.4898 42.2683 84.6292 42.2695 84.5068 42.1435 84.3922 41.9941 84.4626 41.851 84.5301 41.694 84.5945 41.536 84.6639 41.5462 84.6044 41.5667 84.5511 41.6094 84.5137ZM41.0419 85.5932C41.3656 85.2624 41.8259 85.0836 42.1813 84.7829 42.2101 84.763 42.2302 84.7395 42.2444 84.715 42.1571 85.0136 42.0397 85.3057 41.896 85.5845 41.8668 85.5554 41.8235 85.5418 41.7693 85.5598 41.6032 85.6134 41.3291 85.7205 41.0339 85.8624 40.9892 85.7791 40.9651 85.6926 41.0419 85.5932ZM40.9099 86.3515C40.9415 86.3481 40.9744 86.3416 41.0088 86.3308 41.0707 86.2843 41.1076 86.2406 41.1274 86.1991 41.3201 86.0724 41.523 85.9615 41.7364 85.8705 41.3991 86.4315 40.9533 86.9237 40.4323 87.2849 40.3468 87.1706 40.2418 87.0662 40.1792 87.0104 40.4041 86.7716 40.647 86.5476 40.9099 86.3515ZM42.0468 58.083C42.7125 59.368 42.6636 60.8747 42.7314 62.2811 43.043 65.3236 43.5105 68.3498 43.7608 71.401 44.2106 74.3569 44.0399 77.3691 44.5197 80.3147 45.485 82.8768 44.5779 86.0616 42.1673 87.4813 41.4836 87.9019 40.7538 88.7117 39.8967 88.5924 40.0463 88.1541 40.5478 87.8778 40.8728 87.5723 41.4016 87.1436 41.8616 86.6328 42.2355 86.0628 43.2168 84.4914 43.1945 82.0051 41.7767 80.6985 41.6977 80.6359 41.5651 80.5873 41.4719 80.6592 41.1169 80.9327 40.9629 81.3218 40.8034 81.7276 40.6231 82.1861 40.3954 82.6163 40.2362 83.085 40.0887 83.5181 39.9701 84.088 39.6368 84.422 39.4515 84.6075 39.1557 84.742 39.0361 84.4257 38.8865 84.0304 39.2251 83.5521 39.3487 83.1885 39.6916 82.1272 39.8868 80.994 39.84 79.877 39.6597 78.2724 39.0547 77.3267 40.7039 76.2744 40.979 76.0634 41.3297 75.8407 41.4347 75.4903 41.6509 74.4631 40.7529 72.812 40.44 71.7675 39.1185 68.5295 37.7057 65.2645 36.5917 61.975 36.6106 61.9443 36.6193 61.9078 36.6125 61.8681 36.785 61.5841 37.5331 60.2524 37.1859 59.0564L42.0434 57.8207C42.0034 57.8947 41.9957 57.987 42.0468 58.083ZM11.2828 45.3883C10.8033 47.0496 10.286 48.9764 8.61381 49.8224 8.43136 49.9215 8.23992 49.9928 8.04383 50.0389 7.61542 50.0891 7.24369 50.0792 6.93857 50.0436 6.67123 49.9859 6.41072 49.8874 6.1691 49.7518 4.69799 49.0566 3.29628 47.6723 3.56857 45.9159 4.11996 43.0226 6.81621 41.2175 8.3598 38.854 8.68103 38.67 11.3798 34.0101 11.5659 32.8023 11.6589 32.7419 11.7137 32.6245 11.6415 32.5012 10.5672 30.6091 10.8547 28.2803 9.91454 26.3349 9.64194 25.7621 9.29655 25.2275 9.02023 24.6566 8.60266 23.7929 8.40998 22.8447 8.25014 21.9049 8.23527 21.6279 8.06397 21.3002 8.19624 21.0384 8.60359 20.7141 9.00195 21.2847 9.05152 21.6632 9.21786 22.2899 9.3647 22.8887 9.6627 23.4711 9.95729 24.0469 10.3287 24.5735 10.8039 25.0119 10.956 25.1522 11.148 24.9453 11.0257 24.7901 10.5703 24.2508 10.2175 23.6486 9.94862 23.0086 10.0533 22.9649 10.1261 22.8329 10.0632 22.7081 9.48396 21.2426 9.59795 19.5193 9.85847 17.9881 9.88263 17.8837 9.86498 17.885 9.95543 17.902 11.1589 18.4571 10.5434 20.65 10.9052 21.7729 10.881 22.0185 11.9253 25.2182 12.0792 24.0915 11.5046 22.8367 11.1815 21.4514 11.1787 20.0695 11.1772 19.6228 11.1911 19.1702 11.0898 18.7316 11.0557 18.5562 10.9718 18.3447 10.8531 18.1442 10.8882 18.1058 10.908 18.0519 10.9005 17.9822 10.8739 17.7338 10.794 17.065 11.214 17.0715 11.8079 17.3063 11.7775 19.4995 11.8162 20.111 11.828 20.878 11.9816 23.8936 13.1956 23.5045 13.2818 23.4574 13.3016 23.3645 13.2886 23.2759 13.1064 22.0374 13.0377 20.7745 13.0693 19.5236 13.1142 19.2913 13.0222 17.8989 13.2839 17.95 13.4422 18.0222 13.4958 18.3084 13.5283 18.4571 14.0707 20.8721 13.989 23.4286 14.9843 25.7324 15.2934 26.6722 16.3206 27.9767 17.3342 27.0533 17.4243 26.9613 17.4122 26.8531 17.3528 26.7794 17.5876 25.8194 17.9063 24.8784 18.3372 23.9881 18.7619 22.8667 19.4967 24.2182 19.3084 24.8461 19.1928 25.737 18.5277 26.4542 18.3019 27.3159 17.9711 29.379 18.143 30.5078 16.5334 32.1378 13.1287 35.6438 12.8636 40.9552 11.2828 45.3883ZM5.01922 129.566C5.04556 129.566 5.06848 129.56 5.08892 129.552 4.97431 129.895 4.84451 130.237 4.69768 130.574 4.68994 130.592 4.68343 130.611 4.67879 130.63 4.64936 130.181 4.62705 129.641 5.01922 129.566ZM12.3366 146.302C10.1983 147.092 7.60767 147.34 5.51393 146.303 4.73826 145.897 4.14536 145.116 4.29343 144.206 4.29994 144.129 4.30737 144.053 4.3148 143.976 4.3749 144.074 4.43964 144.164 4.50593 144.239 5.14809 144.902 6.07926 145.207 6.94817 145.45 9.05523 145.96 11.7162 145.692 13.2096 143.964 13.2712 143.887 13.3384 143.801 13.4026 143.71 13.5528 144.835 13.3183 145.905 12.3366 146.302ZM13.0274 132.569C12.5219 132.976 11.495 132.955 10.8516 133.081 9.25628 133.258 7.63679 133.23 6.05045 132.985 4.74322 132.893 4.64998 132.225 4.69273 131.078 4.69923 131.007 4.69675 130.918 4.69118 130.818 4.71782 130.882 4.76986 130.934 4.85133 130.952 7.1901 131.462 9.62676 131.486 11.9724 131.004 12.74 130.899 13.344 130.627 13.5389 129.91 13.5587 129.915 13.5782 129.918 13.5974 129.921 13.6027 130.803 13.4754 131.788 13.0274 132.569ZM27.9398 130.511C27.8227 129.916 27.512 129.326 27.5325 128.716 27.5879 128.525 27.7335 128.396 27.8844 128.267 27.8584 128.61 27.8246 128.953 27.7818 129.295 27.7676 129.407 27.8769 129.54 27.9841 129.561 29.4521 129.838 34.6845 130.572 35.6971 129.601 35.9539 129.244 35.9075 128.698 35.9341 128.282 35.9369 128.246 35.9394 128.21 35.9421 128.174 36.1869 128.3 36.4313 128.44 36.6995 128.481 36.6717 129.209 36.5645 130.111 36.3129 130.861 36.26 131.031 36.194 131.434 35.996 131.499 34.253 131.56 32.4931 131.564 30.7488 131.45 30.1801 131.409 29.6117 131.353 29.0473 131.271 28.476 131.197 28.007 131.218 27.9398 130.511ZM46.7244 141.131C46.7225 141.132 46.7206 141.133 46.7185 141.134 46.6066 141.197 46.6091 141.195 46.506 141.233 44.9147 141.725 43.2249 141.831 41.58 142.048 40.703 142.125 39.7991 142.293 38.919 142.192 35.6807 141.705 32.2868 141.139 29.0395 140.405 27.6923 140.244 27.3835 139.58 27.6307 138.297 27.6341 138.281 27.6381 138.265 27.6415 138.249 27.7487 138.421 27.9222 138.463 28.0473 138.408 30.0549 139.426 32.3912 139.645 34.5404 140.265 36.3507 140.662 38.148 141.343 40.0212 141.308 41.8616 141.131 43.6818 140.729 45.498 140.391 46.0658 140.298 46.4874 140.093 46.7786 139.822 46.8588 140.278 46.9728 140.731 46.7244 141.131Z" transform="scale(1.00752 1)"/><path d="M33.6616 69.5464C33.7756 70.1998 34.757 69.452 35.0683 69.2859 35.3675 69.0768 35.7049 68.8389 35.7764 68.4579 35.8706 67.6937 36.0874 66.8477 35.7296 66.1238 35.4341 65.6684 33.9252 66.7424 33.67 67.0519 33.5327 67.199 33.6483 67.4456 33.8146 67.4642 33.5498 68.1057 33.6204 68.8687 33.6616 69.5464Z" transform="scale(1.00752 1)"/><path d="M27.8813 67.7693C27.8543 67.4924 27.7725 67.2814 27.6022 67.2012 27.376 67.0791 27.1044 67.1435 26.8795 67.0358 26.7974 66.9964 26.5452 66.9118 26.4325 67.0026 26.1744 67.7835 26.0731 68.6952 26.0248 69.5158 26.0654 70.2066 26.7977 70.3543 27.3612 70.3683 27.4247 70.3698 27.4913 70.3351 27.5325 70.2831 27.5981 70.5458 27.7654 70.7419 28.1412 70.7456 28.9379 70.8205 31.9988 71.0888 32.4643 70.565 32.6508 69.7174 32.8478 68.8711 32.9662 68.0106 33.095 67.576 32.9129 67.1714 32.4169 67.1841 31.7066 67.1432 30.992 67.1401 30.2805 67.1181 30.0388 67.1358 27.4086 66.8672 28.1006 67.445 28.121 67.4481 28.0204 67.6166 27.9339 67.7835 27.9184 67.8142 27.8847 67.8034 27.8813 67.7693ZM27.1846 69.9355C26.6772 69.9101 26.3361 69.6998 26.5096 69.0843 26.5043 68.948 26.6685 68.0986 26.693 67.5122 26.9315 67.6014 27.3912 67.5109 27.4349 67.6949 27.4371 68.443 27.3246 69.198 27.1846 69.9355Z" transform="scale(1.00752 1)"/><path d="M25.2959 66.9205C25.3068 66.7957 25.2275 66.726 25.1327 66.7108 25.1051 66.7065 25.0528 66.6811 25.0528 66.6656 25.0531 66.5959 25.0224 66.5262 24.9505 66.4837 22.8153 65.5303 20.3774 65.5352 18.1882 64.7072 17.9218 64.6985 15.5778 63.5682 15.8522 64.1564 15.8485 64.1589 15.8448 64.1611 15.8408 64.1639 15.6326 64.4612 15.5598 64.8996 15.4635 65.2477 15.4368 65.5433 14.9793 66.5116 15.2541 66.6513 18.1551 68.3557 21.4306 69.4263 24.7712 69.8082 25.1581 69.9721 25.2027 67.2895 25.2959 66.9205Z" transform="scale(1.00752 1)"/><path d="M14.1491 29.2006C14.0035 29.0082 13.6736 29.1904 13.8186 29.3939 14.6655 30.5345 14.9387 31.982 14.7021 33.3636 14.7039 33.4575 14.8108 33.5278 14.8954 33.4745 15.5192 33.0216 15.2473 32.0006 15.1469 31.3482 14.9737 30.571 14.6293 29.835 14.1491 29.2006Z" transform="scale(1.00752 1)"/><path d="M20.2866 69.9783C19.4666 70.7989 18.7427 71.7306 17.8719 72.5107 17.0021 73.3207 16.0685 74.0592 15.0657 74.6979 14.8455 74.8383 15.044 75.1837 15.2714 75.0495 17.3069 73.8108 19.2957 72.2223 20.4815 70.1276 20.5127 70.0219 20.3833 69.912 20.2866 69.9783Z" transform="scale(1.00752 1)"/><path d="M5.478 17.6972C3.46138 20.1361 4.11624 25.733 5.96217 28.1427 6.05665 28.2477 6.2295 28.1368 6.19388 28.008 5.76856 26.7085 5.15336 25.4579 4.96656 24.0869 4.70512 22.0511 4.57532 19.6881 5.74657 17.9048 5.8649 17.7508 5.60686 17.5535 5.478 17.6972L5.478 17.6972Z" transform="scale(1.00752 1)"/><path d="M2.43263 20.2002C1.10341 22.2738 1.82827 25.4068 3.20582 27.2859 3.28791 27.3633 3.47439 27.3166 3.45612 27.1821 3.33314 26.609 3.05001 26.0784 2.82635 25.5388 2.16592 23.9205 1.8958 21.9795 2.72444 20.3709 2.8248 20.1779 2.54911 20.0156 2.43263 20.2002L2.43263 20.2002Z" transform="scale(1.00752 1)"/><path d="M28.4776 32.0282C28.0157 32.0208 28.0166 32.7469 28.4776 32.741 28.9395 32.7484 28.9385 32.0223 28.4776 32.0282Z" fill="#FFFFFF" transform="scale(1.00752 1)"/><path d="M28.928 37.9557C28.6294 37.9699 28.4271 38.38 28.6724 38.6121 28.9079 38.8614 29.3257 38.648 29.3276 38.3423 29.3496 38.1214 29.1575 37.9129 28.928 37.9557Z" fill="#FFFFFF" transform="scale(1.00752 1)"/><path d="M24.3149 24.9992C23.3639 25.8427 23.2589 27.1583 22.8636 28.3069 22.3398 27.9169 21.7967 27.5545 21.2308 27.2267 20.6537 26.8541 19.9539 26.6679 19.4753 26.1577 19.3647 26.0372 19.1051 26.1233 19.1278 26.3018 19.2613 27.0489 20.1869 27.1682 20.7324 27.5371 21.4551 27.9364 22.148 28.3912 22.8007 28.8973 23.4896 29.5265 23.8344 25.7284 24.558 25.1872 24.6671 25.0385 24.4394 24.8889 24.3149 24.9992Z" fill="#FFFFFF" transform="scale(1.00752 1)"/><path d="M30.7776 28.8261C30.6534 28.3404 30.7061 27.8382 30.8845 27.3661 31.0657 26.7965 31.2417 26.2293 31.3885 25.6494 31.4313 25.4802 31.1698 25.3523 31.0945 25.5255 30.6757 26.6608 29.8539 27.9358 30.3951 29.1572 30.6689 29.5203 31.0118 28.959 30.7776 28.8261Z" fill="#FFFFFF" transform="scale(1.00752 1)"/><path d="M43.1468 57.996C42.6924 56.2975 42.2472 54.5963 41.7984 52.8965 41.7061 52.5468 41.6537 52.1364 41.3182 51.9301 39.779 51.1309 38.5907 51.8811 37.1973 52.5124 36.9322 52.6289 36.6509 52.623 36.373 52.6552 36.1336 51.5416 35.8718 50.4326 35.5949 49.3283 35.3461 48.337 35.0475 47.3166 35.2318 46.2876 36.0986 43.0056 37.7075 39.9478 38.7344 36.7135 38.7998 36.4979 38.4708 36.352 38.3661 36.558 37.4588 38.4324 36.7857 40.4137 36.0094 42.3448 35.326 44.2236 34.2211 46.1593 34.7353 48.2168 35.423 51.2303 36.2237 54.2261 36.6363 57.2965 36.8296 58.7732 37.2392 60.4076 36.1423 61.6414 35.1677 62.9539 34.0479 64.1533 32.8469 65.2608 32.5133 65.5681 33.0151 66.0711 33.3453 65.7592 34.7161 64.4098 36.0726 62.9691 37.048 61.3013 37.3758 60.604 37.4665 59.8717 37.4417 59.126 37.4479 59.131 37.4544 59.136 37.4616 59.1412 38.8422 59.0443 40.1637 58.443 41.5267 58.1933 41.9418 58.1122 42.386 58.0855 42.7729 58.2832 42.9668 58.3826 43.2063 58.2187 43.1468 57.996ZM38.8159 58.3937C38.6536 58.4687 37.68 58.6608 37.4303 58.9002 37.3575 57.7395 37.0353 56.5534 36.9161 55.4261 36.7925 54.7177 36.6559 54.0111 36.5106 53.3067 36.9421 53.3516 37.4154 53.1444 37.8014 52.9746 38.6743 52.5196 39.6126 51.9548 40.6308 52.2739 41.1076 52.3259 41.1881 52.514 41.255 52.9573 41.6816 54.5343 42.1115 56.1107 42.5366 57.6884 41.3055 57.4397 40.0172 58.1515 38.8159 58.3937Z" fill="#FFFFFF" transform="scale(1.00752 1)"/><path d="M30.0398 52.4753C29.0339 47.7358 28.4748 42.9129 28.0563 38.0898 27.8364 35.3787 27.7245 32.6558 27.46 29.9487 27.4454 29.8003 27.2208 29.7938 27.2236 29.9487 27.6136 39.472 28.2775 49.1028 31.0434 58.2742 32.0694 61.0813 31.1193 62.9926 29.335 65.1746 29.1194 65.4575 29.6008 65.7363 29.8136 65.4544 31.1763 63.7578 32.3584 61.6755 31.829 59.4293 31.2838 57.1014 30.4827 54.8314 30.0398 52.4753Z" fill="#FFFFFF" transform="scale(1.00752 1)"/><path d="M7.08571 134.739C7.41747 134.741 10.6942 135.752 10.0257 134.833 9.13454 134.438 8.09154 134.506 7.1424 134.319 6.90449 134.287 6.85121 134.69 7.08571 134.739Z" fill="#FFFFFF" transform="scale(1.00752 1)"/><path d="M12.3847 139.711C12.034 138.987 11.4643 138.4 11.0709 137.702 10.7615 137.152 10.6868 136.607 10.7215 135.982 10.7732 135.248 10.8082 134.515 10.7881 133.78 10.789 133.55 10.47 133.566 10.4418 133.78 10.3395 134.558 10.2364 135.202 10.2051 135.788 9.37058 135.483 7.36791 135.235 6.9429 135.661 6.82953 135.772 6.94445 135.985 7.10151 135.934 7.62099 135.858 8.17393 136.026 8.69745 136.065 8.88331 136.072 9.71133 136.304 10.1983 136.305 10.2175 136.881 10.3368 137.418 10.636 138.001 10.6403 138.01 10.6314 138.019 10.6227 138.014 9.94273 137.632 7.58413 137.751 6.92649 138.049 6.94724 137.698 6.93671 137.345 6.92122 136.992 6.9206 136.979 6.93702 136.973 6.94476 136.983 6.99247 137.045 7.09066 137.055 7.23657 136.949 7.61077 137.006 8.16464 137.083 8.5977 137.151 8.91398 137.148 10.5805 137.723 10.2469 136.996 9.79218 136.614 7.98838 136.489 7.34623 136.491 7.12412 136.487 6.98968 136.613 6.93702 136.744 6.93144 136.758 6.91069 136.754 6.90976 136.739 6.89985 136.519 6.89055 136.299 6.88838 136.081 6.85493 135.255 6.82116 134.431 6.75549 133.607 6.74155 133.431 6.48537 133.427 6.47856 133.607 6.43767 134.801 6.44572 135.995 6.46245 137.189 6.59038 138.256 6.28123 139.167 5.34882 139.762 4.90368 140.078 4.23024 140.327 4.11469 140.928 4.04809 141.274 4.56386 141.425 4.64874 141.075 4.9613 140.316 6.54392 140.195 6.89489 138.395 6.89613 138.384 6.89706 138.374 6.8983 138.364 6.89892 138.364 6.89923 138.364 6.89985 138.365 7.63524 138.419 8.37529 138.268 9.11347 138.324 9.45577 138.341 9.78475 138.386 10.1187 138.462 10.3018 138.504 10.7587 138.625 10.802 138.341 10.8039 138.33 10.8188 138.326 10.825 138.336 10.9826 138.593 11.1753 138.86 11.4098 139.145 11.7317 139.544 11.9154 140.019 12.1012 140.485 12.0715 140.528 12.0563 140.585 12.0659 140.653 12.5293 143.558 5.1422 143.381 5.17008 140.904 5.1865 140.78 5.00219 140.749 4.94612 140.843 4.39039 142.221 6.63499 142.914 7.63555 143.13 9.37895 143.489 12.7598 143.022 12.4949 140.689 12.5668 140.645 12.621 140.569 12.6269 140.474 12.6433 140.219 12.4931 139.936 12.3847 139.711Z" fill="#FFFFFF" transform="scale(1.00752 1)"/><path d="M45.2065 136.767C43.5777 137.601 41.6961 137.839 39.8936 137.571 39.2412 137.48 38.6065 137.304 37.9674 137.15 37.9851 137.086 37.9962 137.019 37.999 136.949 38.0346 136.608 37.6886 136.119 37.1794 135.586 37.3668 135.355 37.5802 135.147 37.824 134.976 38.0554 134.808 38.9317 134.477 38.4494 134.155 37.7772 134.113 37.2376 134.746 36.847 135.253 36.6543 135.067 36.4483 134.879 36.2367 134.692 36.3888 134.628 36.5366 134.549 36.6651 134.493 36.9712 134.359 37.3129 134.231 37.5907 134.046 37.8389 133.88 37.6883 133.477 37.3838 133.555 37.0499 133.641 36.7243 133.839 36.4257 134.007 36.2417 134.111 36.0137 134.206 35.8272 134.335 35.708 134.233 35.5887 134.132 35.471 134.033 35.765 133.86 36.0496 133.674 36.3452 133.502 36.58 133.311 37.2265 133.261 37.0666 132.844 36.6323 132.345 35.5995 133.435 35.1996 133.805 34.9053 133.558 34.629 133.328 34.3961 133.125 34.9115 133.024 35.3114 132.546 35.865 132.487 36.51 132.21 35.7913 131.557 34.9295 132.205 34.6646 132.388 34.3868 132.686 34.0482 132.712 34.0191 132.714 33.9924 132.723 33.9686 132.735 33.9407 132.708 33.9144 132.681 33.8902 132.656 33.5104 132.324 33.1077 132.019 32.7323 131.683 32.6155 131.578 32.4507 131.74 32.5594 131.855 34.0748 133.456 35.9586 135.036 37.3457 136.589 37.6434 137.06 36.9446 137.572 36.8132 138.12 36.663 138.666 36.4437 139.178 36.1584 139.669 35.9589 139.913 35.8257 140.583 36.3405 140.416 36.6218 140.256 36.7572 139.829 36.9003 139.552 37.2509 138.974 37.2893 138.276 37.6642 137.716 37.7475 137.597 37.8308 137.476 37.8934 137.346 40.3623 138.406 43.587 138.389 45.8211 136.819 45.9948 136.395 45.3725 136.692 45.2065 136.767Z" fill="#FFFFFF" transform="scale(1.00752 1)"/><path d="M30.2176 136.056C30.168 135.835 28.122 132.819 28.2391 133.8 29.4509 135.343 30.3929 137.107 30.865 139.017 30.9858 139.333 31.4189 139.209 31.3678 138.878 31.1525 137.89 30.6726 136.953 30.2176 136.056Z" fill="#FFFFFF" transform="scale(1.00752 1)"/><path d="M22.6214 3.80647C22.6214 3.80647 25.4843 2.50636 28.1694 2.49614 30.9 2.48561 33.0923 5.65457 33.3274 8.37529L33.5873 11.3804 33.5966 16.3804C33.5966 16.3804 34.8155 21.2866 30.5072 23.0014 26.1992 24.7163 21.841 20.8907 21.3999 20.2135 20.9588 19.5367 18.2443 17.5324 18.2443 17.5324 18.2443 17.5324 17.4088 17.0123 17.0734 14.1497 16.7379 11.2871 14.514 4.43871 22.6214 3.80647Z" fill="#FFFFFF" transform="scale(1.00752 1)"/><path d="M35.6875 5.63381C35.1761 5.57681 34.6696 5.58394 34.2115 5.31072 33.8506 5.09543 33.5885 4.7553 33.3469 4.4192 32.7596 3.60171 32.1701 2.82233 31.2804 2.31275 29.4986 1.29299 27.1558 1.16071 25.1925 1.65046 24.2158 1.89394 23.1232 2.31492 22.4265 3.08068 22.4039 3.09183 22.3838 3.09926 22.3661 3.10174 22.3515 3.10391 22.3317 3.10577 22.3066 3.10794 21.5607 2.91743 20.7094 3.13396 20.0171 3.41213 19.2145 3.73491 18.4602 4.20948 17.8487 4.82438 16.4628 6.21804 16.0774 8.31023 16.026 10.1992 15.9938 11.377 16.0691 12.5541 16.0688 13.7315 16.0688 13.8833 16.2583 13.9595 16.3658 13.8545 16.4101 13.8112 16.4547 13.7684 16.4997 13.7257 16.5074 13.7182 16.5176 13.725 16.5148 13.7362 16.3584 14.383 16.3265 15.0555 16.9473 15.4415 17.0021 15.4756 17.06 15.457 17.0963 15.4179 17.1201 15.7779 17.2354 16.1447 17.4157 16.4755 17.3385 16.8596 17.4438 17.2852 17.5947 17.652 17.7827 18.1092 18.2523 18.7313 18.6244 19.0571 19.0193 19.4031 19.4666 19.6884 19.9409 19.913 20.3876 20.1246 20.8777 20.3219 21.373 20.3755 21.3906 20.3922 21.408 20.4093 21.4256 20.4257 21.5715 20.5626 21.7202 20.698 21.8782 20.8203 22.0628 20.9632 22.262 21.0561 22.4566 21.18 22.6505 21.3036 22.8856 21.0099 22.7059 20.8566 22.5526 20.7259 22.4253 20.566 22.2738 20.4313 22.1229 20.2975 21.9687 20.1677 21.8206 20.0304 21.2001 19.4549 20.672 18.7892 20.1999 18.0767 20.0481 17.8475 19.9858 17.5789 19.918 17.3125 19.9146 17.2989 19.9084 17.2883 19.9028 17.2772 19.9136 17.2608 19.9242 17.2437 19.9341 17.2264 20.0146 17.0848 19.8557 16.9371 19.7173 17.0095 19.3768 17.188 19.1086 17.3456 18.7216 17.1861 18.3499 17.0328 18.0556 16.7047 17.8518 16.3674 17.4293 15.6679 17.2837 14.5205 18.2384 14.1761 18.8115 13.9694 19.4793 14.1816 19.8706 14.6336 19.9068 14.6754 19.957 14.6686 19.9908 14.6398 19.997 14.6345 20.0177 14.6324 20.023 14.6373 20.3337 14.9359 20.5657 15.3104 20.671 15.7302 20.72 15.925 21.0205 15.8832 21.0198 15.6831 21.0177 15.0295 21.0202 14.3734 20.9709 13.7216 20.9477 13.4143 20.9204 13.1039 20.8637 12.8007 20.8315 12.6278 20.7652 12.2831 20.6481 12.13 20.9724 11.8909 21.815 11.1756 21.9179 9.04191 21.9879 7.59126 22.5284 7.72539 23.6436 7.77185 24.7588 7.81832 25.177 8.09711 25.5952 7.40013 25.9214 6.85679 26.5304 6.38779 27.3361 6.84037 27.841 7.12412 28.052 7.9698 28.2363 8.43631 29.6851 12.0984 32.8004 10.557 32.2196 10.2153 31.4297 9.75067 31.6636 9.70761 31.6636 9.70761 31.6636 9.70761 32.0901 9.99384 32.8581 9.9734 33.0424 11.2233 33.1257 11.9931 33.1381 12.1415 33.2038 12.9168 33.2363 13.6972 33.2264 14.4759 33.2211 14.8514 33.2069 15.2262 33.183 15.6013 33.1616 15.9312 33.1059 16.2649 33.0823 16.5957 32.9981 16.6868 32.9553 16.8144 32.9959 16.9519 33.1161 17.3596 33.3072 17.7273 33.35 18.1585 33.3918 18.5835 33.3552 19.0144 33.2487 19.4276 33.0399 20.2358 32.5656 20.9867 31.9077 21.5022 30.5369 22.5764 28.617 22.9816 26.9089 22.7428 25.921 22.6043 25.0119 22.32 24.2278 21.6824 24.2065 21.6648 24.1696 21.6871 24.1869 21.714 25.2826 23.4169 27.4519 23.8292 29.327 23.5231 31.6478 23.1439 33.9568 21.5279 34.2393 18.9723 34.2672 18.721 34.2654 18.4673 34.2424 18.2155 34.2015 17.7651 34.1052 17.2682 33.8695 16.867 33.9392 16.4832 33.9401 16.0756 33.9587 15.6877 33.9782 15.2838 33.9859 14.8796 33.9828 14.4759 33.9779 13.8173 33.9426 13.1594 33.8741 12.5045 33.9615 12.4308 34.7204 11.6647 34.3103 7.59064 34.3087 7.57484 34.3162 7.55997 34.3313 7.55532 34.5228 7.49647 35.7882 7.07394 35.26 6.33111 35.26 6.33111 35.6135 6.08856 35.764 5.92128 35.8988 5.8587 35.835 5.65023 35.6875 5.63381Z" transform="scale(1.00752 1)"/><path d="M18.1411 15.0032C18.0439 15.1268 18.1275 15.3501 18.3097 15.2925 18.4608 15.2445 18.6008 15.1639 18.761 15.1491 18.9069 15.1354 19.0593 15.1562 19.1996 15.1943 19.4859 15.2717 19.7111 15.4563 19.9812 15.5641 20.0661 15.5979 20.1147 15.492 20.0862 15.4272 19.8204 14.8207 18.5996 14.4195 18.1411 15.0032Z" transform="scale(1.00752 1)"/><path d="M24.5819 7.28582C24.8052 6.52316 25.4657 5.84817 26.2119 5.5827 26.5589 5.4591 26.9486 5.42998 27.2782 5.61956 27.7527 5.89247 27.8872 6.43426 28.0414 6.91781 28.0699 7.00734 28.2257 6.99804 28.2146 6.89427 28.1334 6.12821 27.6344 5.30669 26.794 5.27386 26.0781 5.24567 25.3947 5.72643 24.9608 6.25893 24.7235 6.55011 24.533 6.89582 24.4887 7.27343 24.4825 7.32764 24.5673 7.33538 24.5819 7.28582L24.5819 7.28582Z" fill="#FFFFFF" transform="scale(1.00752 1)"/><path d="M32.5505 6.71089C32.6518 7.24028 32.9854 7.69999 33.5467 7.77216 33.727 7.79539 33.9203 7.78641 34.0956 7.73561 34.1554 7.71826 34.2155 7.6972 34.2694 7.66591 34.309 7.64299 34.3502 7.61356 34.3543 7.61077 34.3995 7.57639 34.3617 7.50297 34.3059 7.49987 34.2957 7.49925 34.2592 7.50297 34.2347 7.50607 34.1867 7.51195 34.139 7.52311 34.0913 7.53178 33.95 7.5578 33.8103 7.58351 33.6656 7.57948 33.1214 7.56431 32.8249 7.15881 32.6536 6.68208 32.631 6.61671 32.5374 6.64243 32.5505 6.71089L32.5505 6.71089Z" fill="#FFFFFF" transform="scale(1.00752 1)"/><path d="M24.4499 7.01105C24.0751 6.63809 23.5358 6.33575 23.0126 6.59193 22.5464 6.82023 22.2834 7.34932 22.1096 7.8115 21.9052 8.3567 21.8277 8.91429 21.7723 9.48984 21.7032 10.206 21.5111 10.9411 21.0775 11.5272 20.8445 11.8422 20.5416 12.1003 20.1934 12.28 20.0134 12.3729 19.8232 12.4432 19.6277 12.4952 19.4019 12.5557 19.1609 12.5612 18.94 12.6353 18.875 12.6569 18.8595 12.77 18.94 12.7833 19.2703 12.8382 19.6562 12.7223 19.9644 12.6074 20.2566 12.4987 20.5292 12.3466 20.7711 12.1495 21.2646 11.7478 21.5867 11.1793 21.7729 10.5775 21.9603 9.97216 21.955 9.34921 22.0718 8.73307 22.1775 8.1761 22.3466 7.58103 22.696 7.12381 22.8605 6.90852 23.0851 6.71801 23.3648 6.69168 23.7362 6.65699 24.0705 6.89613 24.3434 7.117 24.4174 7.17678 24.5203 7.08106 24.4499 7.01105L24.4499 7.01105Z" fill="#FFFFFF" transform="scale(1.00752 1)"/><path d="M17.7344 10.8696C18.7288 11.7899 20.286 10.4006 20.6701 9.46351 20.7113 9.36284 20.5533 9.273 20.4858 9.35633 19.8848 10.0945 18.9029 11.4287 17.8057 10.7776 17.749 10.7435 17.6845 10.8234 17.7344 10.8696L17.7344 10.8696Z" fill="#FFFFFF" transform="scale(1.00752 1)"/><path d="M24.2235 7.55284C23.8769 7.06402 23.1412 6.80475 22.7288 7.358 22.6907 7.40911 22.7651 7.47974 22.8159 7.44504 23.0538 7.28303 23.2756 7.1551 23.5699 7.24958 23.7951 7.32175 23.9679 7.48655 24.1584 7.61759 24.1972 7.64392 24.2508 7.59126 24.2235 7.55284L24.2235 7.55284Z" fill="#FFFFFF" transform="scale(1.00752 1)"/><path d="M25.33 7.21488C25.6361 6.71429 26.4672 6.00337 27.0743 6.37819 27.1322 6.41381 27.2029 6.32708 27.1487 6.28185 26.8005 5.99253 26.3584 6.11365 26.0081 6.33916 25.7017 6.53648 25.357 6.82922 25.2897 7.19754 25.2854 7.2217 25.3164 7.23719 25.33 7.21488L25.33 7.21488Z" fill="#FFFFFF" transform="scale(1.00752 1)"/><path d="M17.7759 10.5236C19.0946 10.6967 19.9006 9.32071 20.3548 8.2901 20.3966 8.19531 20.2764 8.12282 20.2151 8.20863 19.5518 9.13639 19.0866 10.3572 17.7759 10.4356 17.7177 10.4387 17.7208 10.5161 17.7759 10.5236L17.7759 10.5236Z" fill="#FFFFFF" transform="scale(1.00752 1)"/><path d="M25.5069 5.08366C25.5413 5.08087 25.5029 5.09698 25.5444 5.06662 25.5701 5.04741 25.5927 5.01179 25.6156 4.98856 25.6924 4.91049 25.7779 4.83987 25.8647 4.77327 26.1184 4.57873 26.4027 4.41517 26.7004 4.29901 27.5489 3.96817 28.4215 4.13762 29.0696 4.78659 29.8056 5.52353 30.1485 6.53277 30.4059 7.5166 30.5853 8.20212 30.7209 8.99359 31.2008 9.54529 31.8448 10.2853 33.0263 10.1608 33.8465 9.834 33.9286 9.80147 33.898 9.68717 33.81 9.70173 32.9281 9.84825 31.8324 10.132 31.2367 9.25039 30.7702 8.55991 30.6782 7.64361 30.4391 6.86174 30.1305 5.85282 29.5949 4.75716 28.6312 4.23055 27.9026 3.83249 27.0712 3.93472 26.3659 4.32905 26.0896 4.48363 25.8238 4.68157 25.6069 4.91328 25.5955 4.92536 25.3947 5.14654 25.5134 5.13043 25.5394 5.12671 25.5335 5.08149 25.5069 5.08366L25.5069 5.08366Z" fill="#FFFFFF" transform="scale(1.00752 1)"/><path d="M31.3197 7.13403C31.2503 7.80717 31.4975 8.46481 32.0372 8.88641 32.539 9.27858 33.3085 9.45732 33.9175 9.23707 34.0361 9.19401 34.0225 9.01311 33.8868 9.01094 33.2964 9.00133 32.7453 9.02178 32.232 8.67731 31.7138 8.32944 31.4889 7.73158 31.413 7.13434 31.4055 7.07487 31.3259 7.07332 31.3197 7.13403L31.3197 7.13403Z" fill="#FFFFFF" transform="scale(1.00752 1)"/><path d="M-354.586-107.725C-354.713-107.654-354.707-107.472-354.577-107.409-354.251-107.248-353.647-107.021-352.854-107.021-352.018-107.021-351.389-107.272-351.07-107.432-350.965-107.485-350.962-107.633-351.067-107.688-351.439-107.884-352.207-108.247-352.833-108.285-353.443-108.323-354.196-107.949-354.586-107.725Z" fill="#FFFFFF" transform="matrix(1.00752 0 0 1 384.51 127.936)"/><path d="M-349.924-109.048C-350.181-109.34-350.577-109.376-350.946-109.376-351.612-109.346-352.275-109.354-352.938-109.299-352.975-109.296-353.012-109.276-353.037-109.243-353.799-109.256-354.561-109.329-355.314-109.456-355.534-109.497-355.837-109.481-355.992-109.356-356.311-109.096-356.191-108.609-355.967-108.267-354.933-106.8-352.408-106.55-350.971-107.257-350.931-107.262-350.897-107.282-350.872-107.313-350.423-107.593-349.871-108.041-349.8-108.598-349.778-108.759-349.825-108.921-349.924-109.048ZM-352.16-107.277C-352.922-107.219-353.805-107.313-354.425-107.557-354.344-107.593-354.264-107.637-354.186-107.678-354.059-107.75-353.929-107.811-353.793-107.859-352.95-108.132-351.968-108.018-351.243-107.498-351.535-107.372-351.844-107.297-352.16-107.277Z" transform="matrix(1.00752 0 0 1 384.51 127.936)"/><path d="M-352.702-110.441C-353.093-110.427-354.493-110.906-353.929-111.43-353.88-111.473-353.815-111.498-353.75-111.499-353.7-111.499-353.654-111.484-353.613-111.457-353.217-111.146-352.634-110.709-352.213-111.147-351.81-111.637-352.439-112.247-352.721-112.386-352.758-112.419-352.771-112.474-352.752-112.52-352.73-112.593-352.659-112.642-352.582-112.641-352.002-112.596-351.538-112.054-351.612-111.472-351.643-110.911-352.129-110.418-352.702-110.441L-352.702-110.441Z" transform="matrix(1.00752 0 0 1 384.51 127.936)"/><path d="M-350.72-111.565C-350.77-111.562-350.819-111.59-350.844-111.635-351.166-112.447-351.758-113.215-351.798-114.109-351.792-114.48-351.501-114.867-351.11-114.866-350.791-114.861-350.519-114.65-350.33-114.411-350.268-114.342-350.215-114.265-350.175-114.183-348.685-115.339-347.752-113.472-349.286-112.628-349.744-112.339-350.2-112.046-350.615-111.606-350.643-111.579-350.68-111.564-350.72-111.565L-350.72-111.565Z" transform="matrix(1.00752 0 0 1 384.51 127.936)"/><path d="M-355.453-111.565C-355.49-111.564-355.528-111.579-355.556-111.606-355.915-111.994-356.37-112.306-356.866-112.617-358.421-113.455-357.501-115.344-355.995-114.183-355.955-114.269-355.902-114.348-355.837-114.419-355.645-114.655-355.379-114.861-355.063-114.865-354.914-114.865-354.772-114.811-354.66-114.712-354.477-114.56-354.381-114.351-354.372-114.09-354.372-113.853-354.422-113.617-354.518-113.4-354.766-112.798-355.057-112.223-355.329-111.636-355.351-111.59-355.401-111.562-355.453-111.565L-355.453-111.565Z" transform="matrix(1.00752 0 0 1 384.51 127.936)"/><path d="M-357.904-114.944C-357.922-114.943-357.938-114.951-357.947-114.966-358.003-115.049-357.897-115.335-357.829-115.498-357.603-116.05-357.219-116.553-356.695-116.849-356.225-117.123-355.664-117.188-355.326-116.739-355.271-116.658-355.258-116.553-355.295-116.461-355.332-116.349-355.422-116.262-355.534-116.23-355.779-116.176-356.029-116.205-356.268-116.138-356.748-115.974-357.135-115.665-357.488-115.321-357.523-115.284-357.557-115.244-357.585-115.203-357.677-115.083-357.78-114.947-357.9-114.944L-357.904-114.944Z" transform="matrix(1.00752 0 0 1 384.51 127.936)"/><path d="M-348.784-115.376C-348.793-115.376-348.802-115.378-348.812-115.382-348.939-115.444-349.06-115.519-349.171-115.606-349.583-115.916-350.097-116.054-350.643-116.074-350.701-116.056-350.76-116.046-350.822-116.046-351.005-116.039-351.2-116.154-351.228-116.346-351.25-116.452-351.247-116.563-351.213-116.665-351.147-116.885-350.897-116.957-350.689-116.957-350.537-116.951-350.389-116.925-350.243-116.88-349.679-116.748-349.125-116.502-348.806-115.999-348.697-115.838-348.598-115.502-348.784-115.376L-348.784-115.376Z" transform="matrix(1.00752 0 0 1 384.51 127.936)"/><path d="M-137.309-161.312C-138.44-161.291-139.536-162.012-139.999-163.038-140.152-163.442-140.264-163.933-140.772-163.975-140.867-163.99-140.96-164.017-141.047-164.056-141.226-164.139-141.334-164.331-141.344-164.524-141.409-164.519-141.474-164.514-141.544-164.509-142.034-164.402-145.097-164.305-145.507-164.302-145.51-164.301-145.764-164.195-145.979-164.195-146.058-164.19-146.136-164.212-146.201-164.256-146.267-164.303-146.316-164.37-146.34-164.447-146.359-164.526-146.35-164.609-146.312-164.681-146.2-164.921-145.691-165.073-145.404-165.131-145.449-165.128-141.267-165.103-141.201-165.152-141.026-165.333-140.706-165.308-140.453-165.336-140.283-165.457-140.036-165.564-139.697-165.662-139.644-165.682-139.597-165.699-139.553-165.715-138.477-166.088-137.28-166.104-136.178-165.85-135.824-165.8-135.472-165.729-135.126-165.637-134.84-165.562-134.532-165.481-134.206-165.48-133.78-165.478-133.341-165.662-132.985-165.823-132.246-166.137-131.455-166.309-130.653-166.33-129.995-166.344-129.352-166.213-128.712-166.077L-128.705-166.077C-128.471-166.076-128.207-165.97-128.147-165.721-128.113-165.588-128.155-165.442-128.246-165.34-128.25-165.202-128.247-165.059-128.244-164.908L-128.244-164.907C-128.238-164.573-128.231-164.228-128.302-163.916-128.345-163.27-128.48-162.579-128.921-162.08-129.368-161.59-130.103-161.451-130.655-161.56-131.44-161.587-132.202-161.991-132.659-162.63-133.036-163.145-133.156-163.809-133.101-164.436L-133.096-164.479C-133.368-164.603-133.694-164.589-133.986-164.59-134.086-164.578-134.178-164.564-134.268-164.546-134.375-164.514-134.473-164.459-134.556-164.384-134.601-163.677-134.689-162.782-135.206-162.255-135.667-161.586-136.527-161.315-137.309-161.312Z" transform="matrix(1.00752 0 0 1 163.853 178.428)"/><path d="M-136.262-165.279C-136.36-165.275-136.441-165.198-136.448-165.099-136.462-165.012-136.403-164.93-136.316-164.914-136.153-164.884-136.008-164.79-135.915-164.653L-135.905-164.638C-135.834-164.51-135.64-164.532-135.575-164.654-135.545-164.708-135.548-164.775-135.584-164.826-135.733-165.064-135.981-165.242-136.262-165.279L-136.262-165.279ZM-129.47-165.524C-129.538-165.523-129.601-165.488-129.637-165.431-129.685-165.345-129.659-165.236-129.578-165.181L-129.571-165.175C-129.492-165.122-129.439-165.038-129.422-164.945L-129.422-164.933C-129.42-164.83-129.332-164.748-129.228-164.753-129.178-164.752-129.129-164.771-129.093-164.807-129.062-164.841-129.046-164.887-129.049-164.933-129.058-165.152-129.176-165.352-129.382-165.498-129.408-165.515-129.439-165.524-129.47-165.524Z" fill="#FFFFFF" transform="matrix(1.00752 0 0 1 163.853 178.428)"/></g></svg>