<svg width="72" height="149" xmlns="http://www.w3.org/2000/svg" xmlns:xlink="http://www.w3.org/1999/xlink" xml:space="preserve" overflow="hidden"><g><path d="M68.7472 2.34702C68.7472 2.34702 63.3372 7.73651 62.8008 8.68508 62.2874 9.59381 61.481 10.83 61.0272 11.4486 60.5733 12.0672 55.7271 16.6248 55.7271 16.6248 55.7271 16.6248 53.8917 18.192 52.9327 19.6152 51.9737 21.0384 51.0043 23.6572 49.7671 25.4309 48.9391 26.6179 46.9623 29.4112 46.158 30.6897 45.505 31.7277 41.9096 33.5771 40.2598 33.6801 40.2598 33.6801 37.3624 34.773 36.9498 34.9278 36.9498 34.9278 34.7432 36.5054 32.7326 35.3712L28.6906 32.8759 28.5254 31.3496C28.5254 31.3496 25.1225 30.3802 25.1225 34.4018 25.1225 34.4018 22.9263 34.9791 23.0293 36.165 23.0293 36.165 21.1113 36.0411 20.3175 36.1959 19.5237 36.3506 18.8842 37.0001 18.3169 37.66 17.7497 38.3199 16.5641 40.444 15.9864 41.1247 15.6849 41.4802 12.3788 44.3604 9.2222 47.4764 6.3334 50.3283 3.32144 54.4112 2.70534 55.6431 2.70534 55.6431 1.42681 58.4479 12.563 65.8616L9.387 88.3509 5.67493 109.716C5.61353 110.086 5.92338 110.515 6.28098 110.404 8.23234 109.799 10.1604 110.046 10.006 111.366 10.006 111.366 8.7892 114.769 20.6475 112.81 20.6475 112.81 18.7912 121.636 19.8845 127.936 19.8845 127.936 20.7713 132.113 20.6475 132.979 20.5796 133.453 20.0683 134.235 19.905 134.917 19.7703 135.48 19.9351 135.979 19.7811 136.154 18.6261 137.474 16.6464 142.465 16.6464 142.465 16.6464 142.465 14.6013 144.497 15.8213 145.723 16.3929 146.298 17.7615 146.551 20.245 146.6 20.245 146.6 24.7717 147.373 25.679 144.156 25.679 144.156 26.7618 144.702 27.0196 143.413 27.0196 143.413 27.2257 139.186 27.0401 138.072 26.918 137.34 26.6484 136.69 26.6484 136.69 26.6484 136.69 28.4942 135.309 28.1334 133.504 27.7725 131.7 27.2465 127.946 27.7829 123.286 28.319 118.625 30.2991 111.799 30.2991 111.799L32.9936 111.723C32.9936 111.723 38.0805 112.823 39.7579 112.218L40.2253 117.195 41.4353 123.863C41.4353 123.863 42.1778 126.984 41.8992 128.4 41.7448 129.186 40.9678 130.751 41.2428 132.099 41.5179 133.446 43.3877 134.931 43.3877 134.931L42.7152 142.356C42.6618 142.804 42.9282 143.226 43.3324 143.427 44.7036 144.109 46.8991 144.361 48.6121 144.156 48.9628 144.114 49.2425 143.843 49.547 143.785 49.547 143.785 51.2398 145.015 56.9162 144.775 58.213 144.72 59.2496 144.65 59.8585 144.335 60.7733 143.862 60.8746 143.035 60.6559 142.465 60.2915 141.517 56.7238 139.413 56.7238 139.413 56.7238 139.413 53.1905 134.536 50.8704 133.144 50.8704 133.144 52.2383 131.679 51.7744 130.751 51.3106 129.823 50.3247 129.322 50.3997 128.551 51.0596 121.76 49.8497 113.301 49.8497 111.806L49.7581 111.191C49.6999 110.8 49.9337 110.425 50.3099 110.305L55.4312 108.974 49.5743 86.8383 48.1995 71.1926C48.1995 71.1926 47.3472 62.4209 47.0172 56.7841 46.6873 51.1472 46.6323 44.2727 46.6323 44.2727 46.6323 44.2727 50.097 40.7531 50.427 39.7633 50.7569 38.7734 50.2618 36.821 50.2618 36.821 50.2618 36.821 54.8812 27.747 56.8613 24.4748 58.6726 21.4808 64.1756 13.1185 64.1756 13.1185 64.1756 13.1185 64.9662 13.8333 66.3025 12.8754 66.3664 12.8294 66.6073 12.9271 66.5815 13.0014 66.4303 13.4344 66.622 14.1126 67.4474 13.6409 68.5303 13.0222 69.173 11.5717 69.173 11.5717 69.173 11.5717 69.8052 10.0799 69.001 10.025 69.001 10.025 69.4548 8.24455 68.7396 7.63957 68.3422 7.30315 67.6011 7.2791 66.5201 7.30459 66.4475 7.30639 66.4095 7.21878 66.4605 7.16708 66.4605 7.16708 69.6746 3.89985 69.8121 3.61119 69.9194 3.38571 70.3621 2.18833 69.5988 1.57653 69.4588 1.46415 69.2545 1.9072 68.7472 2.34702ZM13.6771 59.0392C13.6545 59.3925 13.2883 59.7239 13.0998 59.4241L10.1977 54.9214C10.1356 54.8234 10.1561 54.6941 10.2458 54.6202L14.0301 51.5037C14.1306 51.4208 14.2817 51.4983 14.2731 51.6283L13.6771 59.0392Z" fill="#FFFFFF" transform="scale(1.00268 1)"/><path d="M60.5374 142.655C60.1001 141.773 59.1645 141.122 58.2691 140.633 57.6766 140.285 57.1173 139.957 56.6293 139.506 56.5568 139.438 55.7809 138.383 55.6032 138.032 55.5415 137.949 53.0871 134.381 51.5199 133.557 51.1174 133.345 50.8341 132.998 50.5975 132.846 49.379 132.299 48.0107 133.331 47.9421 134.55 47.9281 134.639 47.7547 134.747 47.698 134.872 46.9777 136.627 45.0077 136.293 43.7626 135.486 43.6947 135.447 43.6118 135.444 43.5418 135.479 43.4717 135.514 43.4243 135.582 43.4154 135.66 43.2595 137.037 43.1806 138.44 43.1041 139.798 43.0714 140.819 42.9389 141.871 42.9231 142.901 44.6339 143.854 46.539 143.94 48.797 143.919 48.8767 143.918 49.4956 143.55 49.8529 143.767 51.4003 144.706 53.398 144.527 55.1706 144.531 56.8329 144.331 60.6035 145.258 60.5374 142.655Z" fill="#FFFFFF" transform="scale(1.00268 1)"/><path d="M26.9489 138.78C26.909 138.191 26.6929 137.651 26.6491 137.083 26.6441 137.007 26.4337 136.602 26.4635 136.485 26.6021 135.941 25.5612 136.146 25.288 136.155 24.9767 136.168 24.8737 135.308 24.5207 134.848 23.9671 133.952 19.463 134.176 20.1735 135.825 20.1477 136.057 18.9776 136.815 17.0183 141.682 16.6535 142.588 15.2738 144.142 15.5542 145.146 15.8497 146.419 19.4874 146.55 21.0191 146.652 23.3733 146.625 24.8701 145.945 25.3124 144.414 25.3307 144.35 25.7389 143.972 25.8804 144.109 26.0219 144.246 26.354 144.21 26.7037 143.905 27.0369 143.459 26.8146 142.291 26.9065 141.691 26.9195 140.718 27.0135 139.758 26.9489 138.78Z" fill="#FFFFFF" transform="scale(1.00268 1)"/><path d="M51.582 130.834C51.4366 130.464 51.0955 130.192 50.8808 129.886 50.4568 129.256 50.3433 127.549 50.3448 127.535 51.3476 116.983 48.1877 108.435 49.3549 98.7863 50.2396 92.3021 49.4601 85.7806 48.8189 79.3183 48.8135 79.151 48.341 78.8508 48.2002 78.947 45.8665 80.404 42.9368 81.3633 39.085 81.9992 33.7243 82.9183 28.2375 83.9441 22.8756 82.8652 22.5877 82.8074 22.0743 82.9435 22.0506 83.2364 21.465 90.5098 21.4811 98.2721 21.8032 105.633 21.833 109.1 20.7878 112.468 20.1121 115.82 19.0196 121.347 19.687 126.895 20.4421 131.576 20.7013 132.924 20.7623 133.859 20.1972 134.552 20.1204 134.646 20.1294 134.784 20.218 134.867 20.3064 134.95 20.4446 134.951 20.534 134.869 21.5526 134.013 24.7692 133.747 24.9792 135.99 24.9921 136.15 25.1911 136.254 25.3293 136.164 26.1123 135.75 26.5389 136.897 26.8767 136.609 28.259 135.278 27.8953 133.08 27.7018 131.412 27.5273 129.823 27.3575 128.033 27.4544 126.256 27.779 119.286 30.3278 112.78 31.6203 106.004 31.6239 105.985 31.7427 105.404 31.7442 105.385 32.0425 101.455 32.1481 98.1835 33.4765 94.4139 34.1185 92.2314 34.6046 90.0104 35.7449 88.0622 35.9607 87.6935 36.2375 87.984 36.3635 88.3922 38.8233 96.3649 39.3202 104.486 39.8282 112.851 40.0566 117.63 41.2859 121.992 41.7667 126.709 42.2108 130.777 39.308 131.047 43.1278 134.752 43.2452 134.866 43.9945 135.555 44.0074 135.561 45.0547 136.037 46.4765 136.336 47.2904 135.214 47.2969 135.205 47.3041 135.196 47.3113 135.188 47.4563 135.018 47.5834 134.873 47.7543 134.836 48.1794 134.762 47.5267 133.784 48.6379 132.994 49.8942 132.04 50.7253 133.142 50.9645 132.772 51.2406 132.295 51.8183 131.494 51.582 130.834Z" fill="#FFFFFF" transform="scale(1.00268 1)"/><path d="M18.6807 64.6423C18.597 64.4649 18.3697 64.5095 18.2092 64.4958 17.9155 64.5353 17.7464 64.3727 17.5088 64.3917 16.8521 65.3464 16.7253 66.5351 16.4403 67.9404 16.4191 68.0596 16.4999 68.1601 16.604 68.2072 16.9587 68.3942 17.3066 68.661 17.6911 68.7759 17.8983 68.7795 17.9414 68.5569 17.9288 68.3928 17.9723 67.1577 18.0175 65.881 18.6663 64.8671 18.7101 64.7996 18.7151 64.7148 18.6807 64.6423Z" fill="#FFFFFF" transform="scale(1.00268 1)"/><path d="M50.4248 38.3946C50.3512 38.1013 50.5498 37.5559 50.2141 37.4191 50.1128 37.3958 50.0084 37.4424 49.9584 37.5336 49.836 37.7562 49.3395 38.5432 49.1011 38.9296 47.3192 36.8497 46.4736 33.7419 46.968 30.7906 47.0126 30.5597 46.688 30.4172 46.5519 30.6154 45.2095 32.4579 43.0351 32.6888 41.1513 33.6769 41.0461 33.7314 40.9991 33.8568 41.0421 33.9673 41.32 34.9116 40.2322 35.1051 39.7737 35.6986 39.5643 35.9869 39.4505 36.3553 39.238 36.6235 39.0495 36.8831 39.4157 37.0486 39.5801 37.1904 39.9026 37.4349 40.2357 37.6873 40.3618 38.0295 40.5366 39.1425 40.4077 40.3826 39.9869 41.4575 39.8185 41.8022 39.6114 42.5379 39.5015 42.4499 38.4434 41.6008 36.8048 40.4354 36.84 39.3529 36.8533 39.2003 36.6967 39.071 36.5495 39.1141 36.0081 39.2653 35.8078 39.1346 35.5306 38.9676 35.0602 38.9059 34.6714 38.8018 34.3422 38.6495 34.2359 38.6003 34.1099 38.638 34.0481 38.7371 33.1301 40.2056 33.274 42.1706 33.3789 42.9472 33.4015 43.0326 33.3444 43.1012 33.2503 43.0334 31.8533 41.8381 30.1526 40.314 30.08 38.4014 30.0513 38.0661 29.5979 38.1738 29.367 38.0503 29.1462 37.9692 28.7085 37.8449 28.7405 38.2251 26.5575 38.9576 24.1667 39.3023 21.4434 39.28 20.6065 39.3252 19.7391 39.5134 18.7133 39.8717 17.7055 40.5628 16.6539 41.1244 15.6989 41.9835 13.8592 43.69 11.6306 45.1283 9.86954 46.9404 9.77691 47.0327 9.78445 47.1989 9.88786 47.2804 10.3535 47.6667 11.0633 48.29 11.5193 48.6727 13.1321 49.8877 14.6182 51.5759 16.4137 52.4674 17.5813 51.9285 20.1085 51.0646 20.2083 51.2302 20.8377 52.4527 21.2865 53.6845 21.6933 54.9422 22.9797 58.9203 23.463 63.0166 23.2989 67.1512 23.155 70.7772 22.4886 74.3722 22.0782 77.9022 21.8951 79.477 21.6499 81.1325 21.5282 82.6591 25.688 83.3969 30.1637 83.2989 34.2933 82.4742 39.1145 81.7199 44.5621 80.9688 48.8878 78.4246 48.8698 76.4427 48.4372 74.4738 48.2828 72.3203 47.6807 63.9206 46.3009 54.3297 46.6054 44.6856 46.2288 43.8904 47.8768 42.479 48.4638 41.7617 48.9664 41.231 49.4863 40.682 50.0439 40.2153 50.3214 39.6925 50.4948 39.005 50.4248 38.3946Z" fill="#FFFFFF" transform="scale(1.00268 1)"/><path d="M64.9116 9.3432C64.5522 9.11485 64.4003 8.75007 64.2829 8.36267 64.2775 8.21044 64.0409 8.20218 63.9932 8.34508 63.8054 8.90374 64.4154 9.59704 64.8904 9.80205 65.527 10.0972 67.1268 10.3431 66.249 11.3157 65.4645 12.1081 64.2226 11.6855 63.4701 11.0623 63.3781 10.9926 63.2895 11.1222 63.3279 11.2044 64.6168 13.5547 69.0046 10.8012 65.7288 9.66669 65.4613 9.56616 65.1543 9.49758 64.9116 9.3432Z" transform="scale(1.00268 1)"/><path d="M67.6507 6.41921C68.1483 5.90076 68.6348 5.37082 69.1152 4.83622 69.5421 4.36121 70.1007 3.82948 70.2293 3.1807 70.3373 2.60265 70.1815 1.81852 69.7158 1.43255 69.6713 1.3866 69.6017 1.36721 69.5331 1.40958 68.6693 1.9388 67.9856 2.77391 67.2755 3.4866 65.7431 5.12955 63.9145 6.49784 62.6514 8.37595 61.9093 9.27067 61.4372 10.3535 60.6717 11.226 59.7634 12.1229 58.8765 13.0413 58.0231 13.992 56.3741 15.8486 54.2622 17.2503 52.7955 19.2702 52.0452 20.3132 51.582 21.5181 51.0036 22.6573 50.0665 24.5527 48.7445 26.2168 47.5518 27.9481 46.4417 29.4244 45.5308 31.2825 43.6556 31.8986 42.6743 32.2612 41.6428 32.5929 40.8806 33.3458 40.7125 33.1836 40.5205 33.0407 40.3485 32.9021 40.2027 32.7847 39.9417 32.9329 40.0544 33.115L37.8352 34.1594C37.5785 33.7271 36.9714 34.6262 36.7262 34.7845 35.8566 34.9554 35.0412 35.3661 34.1228 35.3417 33.8636 35.1033 33.4575 35.0028 33.129 35.1256 32.8278 34.7166 32.2669 34.4772 31.8393 34.2222 30.8951 33.6553 29.9433 33.1013 28.9922 32.5456 29.1042 31.7916 28.869 31.0164 28.7211 30.2818 28.655 30.0244 28.2996 30.1407 28.3341 30.3885 28.3556 30.5411 28.3746 30.6947 28.3922 30.848 28.3114 30.82 28.2324 30.7963 28.156 30.7777 27.4792 29.7946 26.0247 30.6983 25.5361 31.4727 25.0517 32.1783 24.8945 33.0482 24.8248 33.8855 24.7275 33.9648 24.6805 34.1059 24.6952 34.2377 24.054 34.568 23.2189 34.8251 23.0476 35.6117 22.3586 36.0415 21.4815 35.8393 20.7135 35.9033 18.9467 35.984 17.9471 37.5609 17.0779 38.8991 16.5688 39.6509 16.0565 40.4005 15.5517 41.1552 14.1755 42.3375 12.8226 43.545 11.4026 44.6756 8.06323 47.7978 4.87392 51.2298 2.46837 55.1332 2.3226 55.4223 2.13842 55.9777 2.19156 56.3698 2.58039 57.4853 3.2938 58.5028 3.9774 59.4546 6.07812 62.1675 9.09905 64 11.8941 65.9194 10.0767 79.2141 8.26573 92.515 5.75858 105.702 5.45017 107.358 5.13529 108.997 5.02579 110.681 5.00927 110.934 5.27783 111.018 5.45699 110.922 5.53813 111.028 5.67026 111.092 5.825 111.041 6.42495 110.846 7.06978 110.708 7.69989 110.669 8.27327 110.624 9.53851 110.68 9.57119 111.441 9.53528 111.715 9.40746 111.944 9.42829 112.231 9.68715 113.693 12.3038 114.016 13.5231 114.116 15.7513 114.158 18.0197 113.953 20.2037 113.528 18.8673 118.75 18.9173 124.186 19.7168 129.489 19.8052 131.004 20.6446 132.775 19.7312 134.153 19.5438 134.413 19.3068 134.612 19.0286 134.767 18.4444 135.215 19.1463 135.618 19.4896 135.916 19.2156 136.287 18.9399 136.658 18.6724 137.034 17.7037 138.42 17.2783 140.084 16.5498 141.593 15.9132 142.963 14.1916 144.606 15.6601 146.043 16.2432 146.544 17.0388 146.629 17.7691 146.739 20.3559 147.087 24.901 147.79 25.8567 144.553 27.8684 144.728 27.2964 142.786 27.4354 141.466 27.4627 140.582 27.5406 139.68 27.4627 138.797 27.4451 138.155 27.1395 137.555 27.141 136.917 29.1203 135.518 28.5082 132.747 28.2816 130.691 27.7381 124.523 29.2237 118.422 30.7227 112.484 32.0666 112.338 33.4054 112.336 34.7213 112.679 36.254 113.025 37.8015 113.626 39.3978 113.367 39.6505 117.663 40.7291 121.836 41.3146 126.082 41.3872 126.901 41.4015 127.728 41.3157 128.547 41.2285 129.378 40.929 130.152 40.7944 130.971 40.5072 132.757 41.7031 134.276 43.066 135.281 42.5925 135.939 42.7181 137.179 42.5993 137.979 42.4873 139.568 42.3436 141.157 42.256 142.746 42.2521 143.286 42.5537 143.557 43.0255 143.738 44.9962 144.45 47.2075 144.876 49.2892 144.47 49.4579 144.43 49.547 144.311 49.5689 144.176 51.7066 145.651 54.516 145.048 56.9632 145.183 58.3836 145.224 60.233 145.253 60.9496 143.764 61.2814 143.144 61.188 142.559 60.8092 141.99 60.0291 140.767 58.6112 140.252 57.4795 139.433 56.7055 138.867 56.1486 138.065 55.6036 137.29 54.5089 135.753 53.3212 134.164 51.6229 133.263 52.2297 132.294 52.6749 130.891 51.7461 129.975 51.503 129.719 51.2269 129.522 51.088 129.186 50.8065 128.503 50.8995 127.703 50.9246 126.986 51.0995 121.721 50.8808 116.435 50.1925 111.211 51.5651 111.098 52.6936 109.669 54.208 110.085 54.6367 110.184 54.9394 110.342 55.148 110.755 55.4528 111.351 56.3285 110.925 56.1913 110.315 54.4123 102.281 52.4674 94.2807 50.0906 86.4003 49.8701 83.7919 49.6777 81.1641 49.1801 78.5919 49.4303 78.0365 49.1984 77.3601 49.1646 76.7684 47.9924 66.1578 47.2003 55.5048 46.8732 44.8343 47.1027 44.6892 47.2036 44.3884 47.364 44.1744 47.8347 43.4811 48.3887 42.8905 48.9564 42.2833 50.9713 40.3248 51.3867 39.5855 50.6298 36.7736 54.7426 28.7516 59.4474 21.0607 64.3375 13.4926 64.9963 13.8854 65.7621 13.4631 66.3513 13.1303 66.1219 13.6322 66.6784 14.0728 67.148 14.0286 67.7788 13.9855 68.6635 13.1587 68.778 12.5569 69.5729 11.8353 69.8534 10.6117 69.299 9.66705 69.3367 9.37443 69.3442 9.07715 69.3162 8.78454 69.2236 7.84063 69.0742 7.20047 67.9839 7.16026 67.6399 7.11681 67.2931 7.11717 66.9495 7.15056 67.1976 6.92222 67.4205 6.65868 67.6507 6.41921ZM8.37272 62.3175C7.28987 61.3514 6.17829 60.3985 5.2211 59.3049 4.45384 58.2967 3.73146 57.2472 3.10674 56.1443 4.91556 53.0153 7.34373 50.3038 9.78768 47.6455 10.9553 48.9449 12.3092 50.0647 13.6807 51.1433 12.4187 52.1586 11.0982 53.0426 9.96469 54.2163 9.79343 54.2098 9.61894 54.3408 9.69505 54.5415 9.77871 54.701 9.74675 54.9289 9.90222 55.0489 11.5994 58.6317 14.2132 61.784 17.233 64.3332 16.6571 65.3532 16.3972 66.5441 16.1803 67.6873 13.4829 66.0472 10.7894 64.3601 8.37272 62.3175ZM23.0577 68.3386C23.0095 69.0014 22.9442 69.6634 22.8684 70.3244 22.6397 70.0684 22.2319 70.4896 21.9665 70.2519 22.043 70.1664 22.113 70.0796 22.1759 69.9866 22.4354 69.9629 22.5457 69.718 22.4936 69.5065 22.6609 69.3654 22.574 69.0588 22.3432 69.066 22.2369 69.0778 22.1364 69.1134 22.0416 69.1629 20.827 68.857 19.4691 69.3004 18.29 68.8025 18.3191 67.7508 18.2839 65.5489 18.9546 64.7425 20.4008 64.6972 21.7641 64.2247 23.1496 63.8409 23.2059 65.3395 23.1661 66.8418 23.0577 68.3386ZM13.8875 52.1478C13.5033 54.3372 13.2919 56.5521 13.1457 58.7696 12.1886 57.5567 11.3743 56.2412 10.5664 54.9268 11.5976 53.8522 12.8022 52.969 13.9195 51.9866 13.9094 52.0412 13.899 52.0951 13.8875 52.1478ZM17.582 64.6125C17.8366 64.7615 18.1834 64.7094 18.4713 64.7421 17.7586 65.8551 17.7382 67.2633 17.6919 68.5439 17.3475 68.3752 17.0047 68.1731 16.67 67.9767 16.8557 66.7965 17.1084 65.7273 17.582 64.6125ZM18.9334 139.467C20.0777 139.467 21.3188 139.229 22.3141 139.962 22.4997 140.074 22.7528 140.252 22.9948 140.284 22.8153 140.726 22.4021 140.749 21.9798 140.75 20.8148 140.784 19.6389 140.671 18.5072 140.386 18.6494 140.079 18.7912 139.773 18.9334 139.467ZM23.253 139.775C21.8039 138.863 20.8837 138.61 19.1704 138.955 19.3266 138.618 19.4806 138.282 19.6386 137.946 20.3556 137.984 21.121 137.942 21.8369 138.128 22.4979 138.21 23.1133 138.667 23.7793 138.61 23.6117 139.002 23.4386 139.392 23.253 139.775ZM23.8562 138.431C23.2857 137.528 20.8313 137.216 19.8504 137.504 19.989 137.215 20.1276 136.926 20.2572 136.633 21.9105 136.222 22.8164 136.875 24.2744 137.427 24.1398 137.764 23.9994 138.098 23.8562 138.431ZM24.4611 136.956C23.9628 136.581 23.3506 136.389 22.7676 136.187 22.033 135.902 21.2496 135.936 20.4895 136.121 20.5857 136.012 20.5624 135.861 20.6123 135.733 20.6417 135.645 20.5789 135.58 20.5053 135.566 20.5297 135.45 20.5408 135.331 20.5336 135.211 21.1544 134.418 23.668 134.257 24.3484 135.005 24.6543 135.366 24.6507 135.801 24.7344 136.224 24.6288 136.462 24.5516 136.719 24.4611 136.956ZM26.6943 141.008C26.6742 141.772 26.6434 142.538 26.6383 143.303 26.685 143.729 26.4366 143.931 26.0294 143.946 26.098 143.76 26.1931 143.589 26.3536 143.452 26.7421 143.121 26.1816 142.57 25.795 142.894 25.2575 143.343 25.2097 144.045 24.9832 144.661 23.9104 147.072 18.5665 146.212 16.4952 145.652 14.8795 144.839 17.0108 143.014 17.3465 141.958 18.0541 140.487 18.5033 138.887 19.4249 137.524 18.9869 138.492 18.5317 139.451 18.0861 140.416 18.0362 140.524 18.0732 140.653 18.197 140.689 19.4888 141.064 20.8266 141.263 22.1734 141.201 23.1779 141.259 23.449 140.535 23.7826 139.745 24.2658 138.728 24.6891 137.696 25.1045 136.648 25.3537 136.354 25.861 136.198 26.1389 136.489 26.0276 136.706 26.1267 136.959 26.3249 137.079 26.3644 137.658 26.6735 138.215 26.7177 138.797 26.7726 139.529 26.7137 140.275 26.6943 141.008ZM58.823 141.237C59.451 141.613 59.9842 142.119 60.3335 142.765 60.2951 144.449 58.1175 144.295 56.9133 144.284 55.0395 144.239 53.1244 144.489 51.2797 144.082 50.4744 143.876 49.5513 143.477 49.0508 142.787 48.8386 142.494 48.3521 142.761 48.5564 143.076 48.6993 143.296 48.8569 143.499 49.0285 143.684 47.3163 143.762 45.5796 143.64 43.9392 143.111 43.6728 143.021 43.3992 142.948 43.1447 142.828 43.1303 142.784 43.1486 142.704 43.1508 142.66 43.3443 140.338 43.3852 138.001 43.6466 135.686 45.2249 136.604 46.9828 136.881 47.9073 134.972 47.9669 135.022 48.0631 135.031 48.1313 134.991 48.1669 135.07 48.2972 135.149 48.3758 135.081 49.8967 136.596 51.55 137.976 53.1316 139.428 53.6806 140.056 54.5186 140.036 55.2844 139.985 55.6377 139.963 56.2987 140.065 56.4724 139.677 57.1718 140.323 58.0238 140.733 58.823 141.237ZM50.4959 133.054C50.4999 133.349 50.7799 133.586 51.0707 133.61 51.4578 133.89 51.8244 134.193 52.1744 134.515 51.2664 134.574 50.3774 134.972 49.8489 135.727 49.5186 135.498 48.6153 134.439 48.2473 134.663 48.2282 134.63 48.2006 134.602 48.1712 134.585 48.2239 134.249 48.2886 134.016 48.4444 133.741 48.8422 133.105 49.7983 132.715 50.4959 133.054ZM55.4302 138.487C55.6574 138.791 55.8955 139.086 56.155 139.362 55.3982 139.333 54.3961 139.65 53.7351 139.203 53.5273 139.036 53.3244 138.862 53.1237 138.685 53.4569 138.628 53.7879 138.563 54.1294 138.55 54.5588 138.5 55.0169 138.64 55.4302 138.487ZM54.9408 137.805C54.0974 137.811 53.3783 137.891 52.6426 138.249 52.322 137.954 52.0046 137.654 51.6833 137.363 52.1888 137.086 52.7543 137.071 53.2939 137.049 53.6217 137.021 54.068 137.215 54.3114 136.924 54.5279 137.214 54.734 137.509 54.9408 137.805ZM53.9204 136.414C53.1348 136.279 51.8574 136.455 51.2661 136.989 50.9056 136.666 50.5444 136.344 50.1825 136.023 50.9454 135.422 51.9306 134.989 52.9133 135.245 53.2662 135.619 53.6012 136.01 53.9204 136.414ZM50.4686 130.021C50.6701 130.32 51.019 130.557 51.1601 130.89 51.3583 131.443 51.0309 132.016 50.7577 132.486 49.4027 131.846 47.4402 133.038 47.703 134.609 47.2901 134.7 47.1124 135.16 46.7788 135.389 45.9035 136.169 44.7097 135.573 43.7758 135.222 43.838 135.083 43.8329 134.909 43.7159 134.774 39.8904 131.157 42.591 131.246 42.2546 126.713 41.7839 122.046 40.4562 117.532 40.2343 112.791 39.466 104.364 39.6756 95.4429 36.374 87.4605 36.4055 87.2803 36.4296 87.0982 36.4447 86.9083 36.459 86.7237 36.1855 86.6042 36.0652 86.751 34.1364 89.446 33.404 92.8493 32.422 95.9725 31.4609 99.2121 31.3439 102.582 31.0387 105.92 29.7469 112.676 27.3288 119.248 27.0175 126.179 26.9241 127.88 26.9493 129.591 27.1352 131.286 27.3122 132.845 27.8867 134.84 26.5895 136.077 26.2789 135.714 25.6786 135.604 25.2657 135.851 25.125 134.54 24.1735 134.008 22.9532 134.015 22.1299 133.956 21.1397 134.087 20.4855 134.605 20.469 134.618 20.4518 134.601 20.4643 134.584 21.1081 133.696 21.0715 132.555 20.8729 131.516 20.0385 126.344 19.5603 121.038 20.5843 115.858 21.2661 112.485 22.22 109.132 22.1863 105.663 22.1888 103.892 22.0556 102.125 22.0064 100.355 21.8265 94.6358 22.2965 88.9279 22.4972 83.216 28.0034 84.6772 33.6769 83.277 39.1658 82.4218 42.3573 81.8951 45.5527 81.0495 48.3202 79.3219 48.4149 80.8226 48.6239 82.3209 48.7704 83.817 48.691 83.8942 48.6487 84.0091 48.6853 84.1505 49.319 87.7233 49.2188 91.435 49.1161 95.0581 48.9284 98.7317 48.0965 102.371 48.5255 106.059 49.5858 113.279 50.3742 120.553 49.9566 127.861 49.9523 128.607 50.0421 129.387 50.4686 130.021ZM48.1927 41.7096C47.708 42.2862 45.8486 43.9478 46.2916 44.705 46.2618 55.8786 47.2502 67.0407 48.5151 78.132 48.4297 78.1726 48.3579 78.2383 48.3173 78.3266 44.0376 80.8467 39.0757 81.4908 34.252 82.2458 30.1544 83.0652 25.9461 83.0925 21.8351 82.364 22.48 77.9715 23.0455 73.5532 23.5531 69.1417 24.1014 63.0137 23.1248 56.6997 20.5753 51.0883 20.8561 50.6941 20.4751 50.3476 20.1559 50.4866 20.0751 50.5218 20.0116 50.5422 20.012 50.5419 18.7884 50.9889 17.5974 51.554 16.4176 52.0987 14.2972 50.5379 12.3139 48.8077 10.2893 47.1282 12.0234 45.3402 14.025 43.8534 15.8475 42.1613 16.4711 41.6335 17.1386 41.1391 17.8373 40.7054 18.1525 40.5007 18.5216 40.3582 18.7887 40.0911 19.6497 39.7905 20.5415 39.5611 21.4549 39.5123 23.9581 39.5317 26.4642 39.238 28.8442 38.4352 28.966 38.395 28.9983 38.2783 28.9678 38.1846 29.2482 38.2445 29.5408 38.3644 29.8474 38.3996 29.8427 38.9432 30.0086 39.4793 30.2527 39.9704 30.8925 41.2594 32.0145 42.3009 33.1003 43.2114 33.3344 43.4078 33.669 43.2226 33.6076 42.9163 33.4306 41.6026 33.5279 40.0063 34.2441 38.8606 34.6409 39.0441 35.0692 39.1418 35.4997 39.1985 35.7162 39.4656 36.2357 39.4372 36.608 39.3396 36.5258 40.6612 38.7411 42.0902 39.6699 42.8908 39.8983 43.0635 40.1869 42.7336 40.0501 42.5106 39.7927 41.9832 40.3535 41.4881 40.4074 40.9614 40.6163 39.992 40.7854 38.9515 40.5854 37.9681 40.398 37.4302 39.8369 37.1215 39.4182 36.7696 39.6426 36.4914 39.755 36.1244 39.964 35.8318 40.2164 35.4581 40.6906 35.3712 40.9811 35.0301 41.2457 34.7217 41.4137 34.2811 41.2576 33.8837 43.1842 32.8823 45.3499 32.6551 46.739 30.7529 46.1843 34.0632 47.2423 37.8492 49.8938 40.0383 49.2885 40.5442 48.7374 41.1355 48.1927 41.7096ZM50.1861 38.2531C50.1976 38.5418 50.2241 38.8359 50.1836 39.1231 50.0069 38.9177 49.8274 38.712 49.6791 38.5332 49.8464 38.2413 49.9994 37.9404 50.1617 37.6453 50.1714 37.8467 50.1764 38.0489 50.1861 38.2531ZM67.3318 13.4326C67.1696 13.5299 66.8005 13.6358 66.7351 13.3694 66.7143 13.0571 67.0407 12.7616 67.1857 12.5034 67.343 12.7508 67.6259 12.8969 67.8919 12.8973 67.7293 13.1005 67.5598 13.2958 67.3318 13.4326ZM68.9468 11.6873C68.8305 11.9222 68.6894 12.1634 68.4861 12.334 68.3867 12.3293 68.2962 12.413 68.2309 12.4891 67.9401 12.6029 67.5135 12.5957 67.4913 12.2374 68.3713 12.0101 68.8987 11.1502 69.1601 10.3266 69.2972 10.7915 69.1611 11.2687 68.9468 11.6873ZM66.5955 7.5096C67.1308 7.44461 68.3666 7.41194 68.6926 7.89161 69.3065 9.1267 68.8696 11.2113 67.539 11.8008 66.882 11.9372 67.6442 10.3205 67.7429 10.0573 67.8212 9.8857 67.911 9.71444 67.9217 9.522 67.9372 9.24123 67.72 8.86963 67.395 8.96406 67.3423 8.97949 67.3157 9.05381 67.3609 9.09331 67.7078 9.39705 67.3028 9.93776 67.1735 10.2699 66.9958 10.8249 66.5897 11.6026 67.031 12.1153 66.8945 12.2744 66.7671 12.4406 66.6482 12.6133 66.0092 12.3135 65.2254 13.3788 64.5206 13.051 64.4933 12.9375 64.3928 12.8488 64.2754 12.8176 64.1274 12.7124 63.9935 12.8327 63.9106 12.9526 58.5139 20.9699 53.034 29.0798 49.2799 38.0223 47.186 35.2315 46.9705 31.3755 48.1543 28.1811 50.0963 25.8151 51.5705 23.1711 52.8792 20.4202 54.1168 18.2591 56.2452 16.8672 57.9506 15.1136 58.836 14.2063 59.6776 13.2574 60.5751 12.362 61.4767 11.5771 62.0738 10.5646 62.692 9.55898 63.0406 9.05058 63.423 8.55799 63.7971 8.06754 64.8692 6.66263 66.3215 5.60994 67.4984 4.29623 68.2215 3.50276 69.0297 2.77248 69.611 1.86124 70.2074 3.12038 69.2466 3.90883 68.4449 4.71881 68.0058 5.18269 67.5605 5.64082 67.1193 6.10254 66.7279 6.51184 66.2763 6.88811 66.0652 7.42451 66.0311 7.65034 66.2551 7.65932 66.4012 7.54981 66.4274 7.55986 66.5628 7.51427 66.5955 7.5096Z" transform="scale(1.00268 1)"/><path d="M25.4409 34.6211C25.935 35.0969 26.587 35.3546 27.22 35.5909 27.4835 35.6868 27.7837 35.8584 28.0526 35.7122 28.1739 35.6462 28.1912 35.4993 28.1384 35.3848 27.9955 35.0617 27.0882 34.9532 26.732 34.74 26.3116 34.5921 25.9572 34.2449 25.5483 34.1117 25.3889 34.0291 25.2097 34.1968 25.3002 34.3598 25.3548 34.4578 25.3494 34.5303 25.4409 34.6211Z" fill="#FFFFFF" transform="scale(1.00268 1)"/><path d="M40.6181 37.5336C39.9309 36.8931 39.0998 36.4519 38.209 36.1406 38.5558 35.6487 38.9845 35.1967 39.2872 34.6775 39.5547 34.1731 39.2613 33.8912 38.8402 34.3325 38.409 34.8441 38.0761 35.4552 37.6931 36.0063 37.5746 35.9833 37.4561 35.9657 37.3372 35.9553 37.2119 35.5105 37.0123 35.0918 36.7 34.777 36.5696 34.6456 36.3858 34.8114 36.4569 34.9644 36.9796 36.1503 37.148 37.609 36.6422 38.8247 35.6221 37.5096 34.5177 36.2056 33.2317 35.1507 33.1932 34.9651 32.9466 34.9572 32.8626 35.0926 31.374 35.341 30.0165 36.7527 29.325 38.0374 27.7926 37.7361 24.8719 37.7799 24.0813 36.2156 23.9851 36.0271 24.0414 35.7622 23.8824 35.6132 23.844 35.5862 23.8518 35.5877 23.9057 35.6178 23.8748 35.4688 23.6303 35.4667 23.6034 35.6182 23.3241 35.9427 23.533 36.5237 23.7445 36.8461 24.9738 38.3576 27.2555 38.3709 29.0335 38.6991 28.9121 38.9253 28.8712 39.5026 29.2625 39.378 29.5121 39.2613 29.5214 38.9238 29.6291 38.7009 29.7953 38.6538 29.9569 38.4517 29.8115 38.2944 30.4387 37.008 31.5546 36.0472 32.8349 35.4458 33.0482 36.7434 33.4862 38.0051 33.9153 39.262 33.9935 39.4915 34.2416 39.5446 34.3648 39.4674 34.5001 39.3823 34.5041 39.1471 34.4341 38.9346 34.1167 37.9709 33.8122 37.0033 33.5117 36.0343 34.4068 37.0881 35.3622 38.0959 36.174 39.2175 36.2232 39.2868 36.2867 39.3267 36.3535 39.3432 36.1366 39.6476 36.5334 39.9675 36.8055 39.7388 37.5993 38.8685 37.6015 37.5322 37.4417 36.4231 37.4568 36.4285 37.4719 36.4339 37.487 36.4393 37.511 36.6095 37.7347 36.7459 37.865 36.5858 38.8125 36.9847 39.8063 37.4493 40.4544 38.2779 40.6005 38.4768 40.6756 38.6642 40.8784 38.8154 40.994 38.9016 41.1976 38.814 41.2227 38.6754 41.3042 38.2295 40.9204 37.8248 40.6181 37.5336Z" fill="#FFFFFF" transform="scale(1.00268 1)"/><path d="M15.1122 73.1734C13.252 85.4255 11.6809 97.7304 10.1808 110.032 10.1557 110.405 10.1708 110.78 10.1446 111.154 10.1377 111.253 10.3004 111.276 10.3201 111.177 11.319 106.29 11.7947 101.305 12.5192 96.37 13.4976 88.6539 14.704 80.963 15.5014 73.2261 15.5211 73.0057 15.1517 72.9533 15.1122 73.1734Z" fill="#FFFFFF" transform="scale(1.00268 1)"/><path d="M35.7851 104.742C35.6246 101.696 35.4699 98.6491 35.3123 95.6027 35.2976 95.3151 34.8502 95.3126 34.8628 95.6027 35.1493 100.611 35.1381 105.649 35.6318 110.641 35.6649 110.844 35.9618 110.779 35.9736 110.594 36.0555 108.644 35.8627 106.69 35.7851 104.742Z" fill="#FFFFFF" transform="scale(1.00268 1)"/><path d="M27.3323 17.3063 25.3745 23.5768C25.3745 23.5768 22.2315 24.6967 23.2217 27.8379 23.2217 27.8379 23.882 29.3394 25.9371 28.9028 25.9371 28.9028 26.7941 30.3956 28.4504 32.0336 30.0739 33.6392 32.5032 35.0936 36.6393 34.9195 36.6393 34.9195 43.3055 33.4927 41.3035 27.7208 41.3035 27.7208 41.7721 23.1632 40.7283 18.8397 40.2537 16.8736 38.4718 15.9785 38.4718 15.9785 38.4718 15.9785 28.6033 13.6685 27.3323 17.3063Z" fill="#FFFFFF" transform="scale(1.00268 1)"/><path d="M41.7017 27.6824C41.7814 27.2426 41.7825 26.7755 41.804 26.331 41.8263 25.8682 41.8353 25.405 41.8317 24.9422 41.8248 24.0314 41.7685 23.1219 41.6539 22.2179 41.6223 21.9687 41.5882 21.7185 41.5509 21.4675 41.6094 21.4553 41.6654 21.4215 41.7046 21.3648 43.5303 18.7183 42.5178 14.8131 40.2092 12.7878 37.6015 10.5 33.912 10.0171 30.5985 10.6181 29.6546 10.7894 28.7276 11.0493 27.8314 11.3922 27.0559 11.6888 26.2502 12.0349 25.5447 12.4909 25.5508 12.3555 25.5451 12.2187 25.526 12.0816 25.5081 11.952 25.3433 11.8848 25.2313 11.9143 24.6367 12.0701 24.4313 12.6068 24.4374 13.1598 24.2658 13.0966 24.0809 13.0833 23.872 13.1475 23.5969 13.2323 23.3707 13.4606 23.3101 13.745 23.3076 13.7572 23.3058 13.7694 23.304 13.782 23.2943 13.8136 23.2921 13.8462 23.2975 13.8778 23.3004 14.0965 23.425 14.2932 23.6346 14.3798 23.1614 15.1061 22.8024 15.8999 22.522 16.7196 21.8901 18.5672 21.5982 20.6449 21.9867 22.5762 22.1726 23.5011 22.5496 24.4044 23.2088 25.093 23.2171 25.1017 23.2257 25.1092 23.2343 25.1164 23.142 25.2636 23.0645 25.4208 23.002 25.5835 22.5719 26.7033 22.8465 28.1649 23.886 28.8547 24.1362 29.0205 24.4249 29.1318 24.725 29.1871 24.85 30.1694 26.0696 30.8767 26.9098 31.1396 27.0598 31.1866 27.164 31.0864 27.1894 30.9626 27.5309 31.4239 27.9377 31.8426 28.3642 32.2239 29.3333 33.0909 30.4283 33.8427 31.5909 34.4255 31.7661 34.5134 31.9445 34.5935 32.1248 34.6696 33.4069 35.4056 35.0304 35.55 36.4967 35.3105 38.8176 34.9313 41.1283 33.4726 41.8941 31.1607 42.097 30.5489 42.1882 29.8855 42.1304 29.2424 42.0841 28.7218 41.9742 28.1463 41.7017 27.6824ZM40.9904 30.6168C40.7513 31.5428 40.2077 32.403 39.4538 32.994 37.883 34.2251 35.6832 34.6894 33.7257 34.4158 32.5937 34.2571 31.5517 33.9311 30.6534 33.2008 30.629 33.1807 30.587 33.2062 30.6064 33.2371 30.6333 33.2791 30.6617 33.3196 30.6901 33.3602 30.3159 33.1293 29.9515 32.882 29.5997 32.6188 28.9789 32.1546 28.3911 31.635 27.863 31.0667 27.6167 30.8017 27.3769 30.522 27.165 30.2283 26.9801 29.972 26.8466 29.6754 26.6563 29.4259 26.6333 29.3957 26.5945 29.3806 26.559 29.3824 26.4502 29.195 26.3357 29.0388 26.2211 28.9538 26.2463 28.9394 26.2718 28.9257 26.2962 28.9103 26.368 28.8647 26.3396 28.7516 26.2527 28.7498 25.61 28.7358 24.915 28.8557 24.3168 28.5502 23.8684 28.3211 23.5553 27.9115 23.4049 27.4354 23.1262 26.5543 23.3255 25.3426 24.1682 24.8266 24.4005 24.6845 24.6643 24.6123 24.9365 24.608 25.218 24.6033 25.4743 24.6906 25.7393 24.7505 25.7752 24.9527 25.8398 25.1523 25.9159 25.3397 26.1044 25.8043 26.4233 26.5037 26.9209 26.7022 27.0853 26.7679 27.2034 26.5565 27.1345 26.4243 27.1184 26.3931 27.0993 26.3637 27.0796 26.3346 27.1288 26.2983 27.1589 26.2358 27.141 26.1536 27.0724 25.8391 26.9521 25.5404 26.8911 25.2234 26.8347 24.9293 26.8082 24.6331 26.8146 24.3333 26.8275 23.7459 26.9593 23.1722 27.1126 22.6074 27.179 22.3633 27.2469 22.1199 27.3122 21.8764 27.3665 21.7274 27.4189 21.5903 27.4677 21.4671 27.4925 21.4556 27.5162 21.4395 27.5377 21.4165 28.2138 20.6923 28.7559 19.7886 29.1124 18.8673 29.3613 18.2243 29.5006 17.5192 29.4022 16.8424 29.5612 16.972 29.7235 17.0937 29.8862 17.2057 30.54 17.6563 31.262 17.9766 32.0282 18.1809 32.8644 18.4038 33.7117 18.5564 34.438 19.0576 34.6944 19.2282 34.9256 18.8207 34.6775 18.6476 34.2222 18.3475 33.8866 17.9371 33.6008 17.4843 33.9803 17.778 34.4 18.0254 34.8581 18.2225 35.9844 18.7065 37.2267 19.0268 38.4276 19.2494 38.4973 19.2623 38.5616 19.2271 38.6 19.1761 38.6901 19.1995 38.7806 19.2149 38.87 19.2196 38.978 19.2253 39.0409 19.0749 38.9601 19.0023 38.6391 18.7148 38.1799 18.5668 37.8079 18.3525 37.5889 18.2265 37.3764 18.0908 37.1717 17.9432L36.7057 17.531C36.9168 17.6262 37.1502 17.6815 37.371 17.7288 37.823 17.8258 38.2808 17.8918 38.731 17.9974 39.0089 18.0624 39.2958 18.1371 39.5564 18.2613 39.8164 18.4272 40.0135 18.5952 40.1625 18.7546 40.3348 19.0128 40.3995 19.323 40.4145 19.6518 40.4181 19.7323 40.4673 19.7969 40.5309 19.8328 40.6669 20.6399 40.7937 21.4485 40.8626 22.2671 40.9377 23.1557 40.975 24.0497 40.9639 24.9419 40.9581 25.372 40.9416 25.8018 40.9143 26.2315 40.8899 26.6096 40.826 26.992 40.7987 27.3711 40.7025 27.4756 40.6533 27.6217 40.6996 27.7793 40.8375 28.2465 41.0565 28.668 41.1053 29.162 41.1542 29.6499 41.1122 30.1436 40.9904 30.6168Z" transform="scale(1.00268 1)"/><path d="M25.4435 25.9404C25.2607 25.795 25.0675 25.647 24.8324 25.6061 24.5071 25.549 24.1764 25.7641 24.1796 26.1131 24.18 26.1637 24.2547 26.1745 24.268 26.1249 24.2974 26.019 24.4575 25.9827 24.5426 26.0071 24.5947 26.0222 24.6363 26.057 24.6758 26.0922 24.7764 26.1806 24.841 26.2976 24.9142 26.4078 25.0819 26.6606 25.2424 26.9381 25.4973 27.109 25.8567 27.3485 26.2416 26.8886 26.0596 26.5468 25.9264 26.2987 25.6614 26.1141 25.4435 25.9404Z" transform="scale(1.00268 1)"/><path d="M-557.633-416.967C-557.052-417.318-554.819-416.956-553.113-416.863-551.738-417.046-550.844-417.042-550.535-416.834-549.835-416.363-549.738-414.859-551.444-413.915-552.241-413.509-557.235-413.211-557.996-413.969-558.919-414.891-558.678-416.338-557.633-416.967Z" fill="#FFFFFF" transform="matrix(1.00268 0 0 1 590.76 444.846)"/><path d="M-550.051-416.873C-550.37-417.189-550.787-417.318-551.085-417.372-551.494-417.437-551.939-417.512-552.323-417.311-552.409-417.279-552.474-417.196-552.481-417.103-554.302-417.01-556.23-418.155-557.953-417.225-559.533-416.342-559.217-413.721-557.4-413.283-556.344-412.978-555.203-413.103-554.133-413.068-552.431-413.046-550.388-413.337-549.709-415.107-549.501-415.699-549.58-416.424-550.051-416.873ZM-556.237-416.834-556.237-416.834C-555.849-416.827-555.461-416.794-555.073-416.744-555.045-416.74-554.883-416.723-554.851-416.719-554.872-416.521-554.88-416.324-554.876-416.13-554.876-415.904-554.883-415.717-554.88-415.487-555.451-415.466-556.021-415.444-556.596-415.412-556.635-415.671-556.66-415.857-556.675-416.109-556.682-416.342-556.711-416.572-556.765-416.798-556.589-416.823-556.42-416.83-556.237-416.834ZM-556.987-416.758C-557.12-416.313-557.091-415.843-557.113-415.39-557.454-415.38-557.817-415.365-558.168-415.322-558.244-416.058-557.601-416.661-556.987-416.758ZM-558.158-415.186C-557.799-415.15-557.429-415.143-557.113-415.139-557.113-414.83-557.095-414.518-557.055-414.213-557.048-414.123-556.994-414.044-556.915-414.001-556.905-413.997-556.879-413.99-556.879-413.987-556.887-413.979-556.944-414.001-556.973-414.008-557.673-414.17-558.071-414.557-558.158-415.186ZM-556.718-413.958C-556.729-413.961-556.729-413.972-556.718-413.976-556.528-414.005-556.362-414.188-556.406-414.389-556.434-414.561-556.467-414.73-556.499-414.895L-556.499-414.895C-556.517-414.974-556.531-415.057-556.546-415.136-556.003-415.125-555.407-415.128-554.88-415.139-554.876-414.866-554.858-414.604-554.854-414.328-554.858-414.184-554.851-414.04-554.833-413.897-555.461-413.893-556.093-413.872-556.718-413.958ZM-552.352-415.082-552.352-415.082C-552.363-414.924-552.377-414.762-552.384-414.604-552.384-414.45-552.399-414.295-552.42-414.145-552.467-414.105-552.496-414.048-552.496-413.99-553.031-413.9-553.566-413.879-554.108-413.89L-554.108-413.89C-554.129-413.94-554.165-413.983-554.215-414.005L-554.212-414.026C-554.212-414.073-554.215-414.119-554.23-414.166-554.294-414.504-554.327-414.82-554.366-415.15-553.673-415.161-552.995-415.179-552.345-415.204-552.348-415.164-552.352-415.125-552.352-415.082ZM-552.316-415.606C-553.092-415.566-553.795-415.534-554.409-415.505-554.449-415.832-554.485-416.162-554.51-416.468L-554.51-416.468C-554.517-416.539-554.521-416.615-554.531-416.687L-554.531-416.687C-553.759-416.622-553.07-416.658-552.316-416.762-552.295-416.744-552.269-416.73-552.244-416.719L-552.223-416.712C-552.266-416.338-552.291-415.968-552.316-415.606ZM-551.907-414.141C-551.928-414.288-551.946-414.439-551.95-414.59-551.957-414.766-551.975-414.945-551.986-415.118L-551.986-415.121C-551.986-415.154-551.989-415.186-551.993-415.222-551.706-415.229-551.415-415.25-551.128-415.25-551.099-415.25-551.045-415.25-551.02-415.25-550.855-415.247-550.69-415.261-550.528-415.293-550.79-414.719-551.271-414.364-551.907-414.141ZM-551.11-415.685C-551.379-415.649-551.742-415.642-552.018-415.624-552.04-415.972-552.058-416.317-552.086-416.669-552.086-416.669-552.086-416.669-552.086-416.669L-552.086-416.669-552.086-416.669C-551.921-416.633-551.756-416.608-551.591-416.6-551.016-416.604-550.341-416.324-550.428-415.681-550.65-415.742-550.883-415.71-551.11-415.685Z" transform="matrix(1.00268 0 0 1 590.76 444.846)"/><path d="M-552.995-417.94C-553.418-417.929-553.878-418.18-553.709-418.611-553.648-418.758-553.508-418.88-553.343-418.88-553.271-418.88-553.196-418.855-553.135-418.812-553.049-418.762-552.948-418.737-552.847-418.744-552.654-418.751-552.463-418.783-552.28-418.841-552.122-418.884-551.914-418.995-551.821-419.175-551.706-419.401-551.839-419.624-552.097-419.706-552.23-419.746-552.366-419.767-552.506-419.771-552.528-419.771-552.553-419.771-552.582-419.771-552.779-419.767-552.977-419.749-553.171-419.72-553.296-419.702-553.429-419.685-553.558-419.674-553.583-419.674-553.605-419.688-553.609-419.713-553.616-419.735-553.609-419.764-553.587-419.778-553.386-419.886-553.178-419.972-552.959-420.033-552.524-420.162-551.885-420.23-551.519-419.975-551.103-419.706-551.092-419.01-551.408-418.633-551.817-418.148-552.287-417.997-552.995-417.94L-552.995-417.94Z" transform="matrix(1.00268 0 0 1 590.76 444.846)"/><path d="M-549.957-419.688C-549.993-419.692-550.036-419.695-550.072-419.702-550.144-419.724-550.208-419.771-550.255-419.828-550.305-419.889-550.331-419.961-550.327-420.04-550.316-420.216-550.309-420.435-550.381-420.64-550.445-420.819-550.604-420.952-550.79-420.981-551.149-421.063-551.386-420.704-551.383-420.36-551.465-420.112-551.745-420.51-551.752-420.636-551.921-421.706-550.449-422.008-549.911-421.203-549.634-420.848-549.537-420.385-549.641-419.947-549.663-419.878-549.702-419.817-549.76-419.771-549.814-419.72-549.882-419.692-549.957-419.688L-549.957-419.688Z" transform="matrix(1.00268 0 0 1 590.76 444.846)"/><path d="M-558.046-419.85C-558.244-419.886-558.316-420.112-558.323-420.245-558.29-421.681-556.441-421.961-555.81-420.762-555.476-420.679-555.612-420.252-555.788-420.069-555.982-419.85-556.373-419.961-556.452-420.234-556.653-420.912-557.508-420.887-557.727-420.245-557.788-420.105-557.874-419.979-557.978-419.875-557.996-419.857-558.021-419.85-558.046-419.85Z" transform="matrix(1.00268 0 0 1 590.76 444.846)"/><path d="M-559.141-421.024C-559.159-421.024-559.174-421.038-559.177-421.056-559.256-421.911-558.933-422.801-558.341-423.422-558.158-423.598-557.942-423.745-557.709-423.849-557.317-424.029-556.822-424.147-556.431-423.918-556.273-423.817-556.154-423.663-556.097-423.487-556.064-423.386-556.079-423.279-556.133-423.192-556.179-423.099-556.265-423.031-556.37-423.006-556.427-422.995-556.488-422.988-556.546-422.988-556.657-422.991-556.768-423.002-556.879-423.024L-556.879-423.024C-556.987-423.045-557.098-423.056-557.21-423.059-557.504-423.056-557.788-422.963-558.021-422.79-558.377-422.517-558.563-422.115-558.743-421.731-558.858-421.49-558.965-421.218-559.141-421.024Z" transform="matrix(1.00268 0 0 1 590.76 444.846)"/><path d="M-549.333-421.656C-549.803-421.67-549.932-422.09-550.061-422.442-550.395-423.243-551.426-423.512-552.244-423.293-552.262-423.293-552.273-423.304-552.28-423.318-552.291-423.365-552.226-423.404-552.208-423.444-552.144-423.541-552.068-423.627-551.979-423.699-551.074-424.413-549.72-423.903-549.203-422.955-549.149-422.848-549.117-422.733-549.063-422.625-548.916-422.542-548.815-422.399-548.787-422.234-548.744-421.932-549.038-421.652-549.333-421.656Z" transform="matrix(1.00268 0 0 1 590.76 444.846)"/></g></svg>