<svg width="75" height="156" xmlns="http://www.w3.org/2000/svg" xmlns:xlink="http://www.w3.org/1999/xlink" xml:space="preserve" overflow="hidden"><g><path d="M73.4364 21.8713C72.6502 21.1923 68.0002 23.6945 68.0002 23.6945 68.0002 23.6945 68.051 23.2387 67.4286 23.1754 66.9194 23.1236 65.3901 24.6859 64.5761 25.0114 62.8964 25.6829 62.1619 27.6308 62.053 28.3102L61.4254 27.5543 56.9657 34.1633 50.8794 41.0686 46.361 38.1814 40.4462 33.5215 38.7493 31.8863 38.4004 31.3669C38.4004 31.3669 38.1468 30.5727 37.3648 30.0968 36.5828 29.6209 32.8464 28.4454 32.8464 28.4454 31.1647 26.1255 29.1756 24.8828 29.1756 24.8828L27.6964 24.8963C26.5404 21.2843 19.0679 20.4423 18.3077 20.3888 18.2764 20.3865 18.251 20.4136 18.2543 20.4449L18.6023 23.6704C17.8289 23.8294 16.7214 26.423 16.7214 26.423L15.2636 27.0444 10.9203 29.8079C8.00844 30.1779 8.5767 32.4371 8.5767 32.4371 8.57307 32.8636 8.59418 33.3045 8.63607 33.756 8.39399 33.9905 2.53953 54.978 2.53953 54.978L2.43136 66.0002 2.371 77.9205 4.86898 78.6303C4.85975 78.6534 4.58238 81.7242 4.58139 81.7783 4.54643 83.3604 4.59392 85.2014 5.20638 86.8768 5.63975 87.9227 5.68394 88.892 7.52263 90.0285 7.58991 90.07 8.78415 90.8055 9.3755 90.8992 9.38342 90.9005 9.59087 90.9483 9.54304 90.6993 9.47049 90.3217 9.24226 89.9912 9.06185 89.6614 8.97676 89.5057 8.8887 89.3451 8.81318 89.1898 8.16708 87.7977 7.57078 85.8257 8.40025 84.3373 8.41279 84.3149 8.4362 83.8571 8.54174 83.8568 8.64563 83.8564 8.80229 84.4395 8.85077 84.7486 8.85176 84.7538 8.85308 84.7591 8.85407 84.7644 8.91344 84.9847 8.96522 85.212 9.01997 85.4524 9.1852 86.177 9.20961 87.2139 9.59746 87.8217L9.92167 92.0766 9.73928 98.2563 9.19213 105.267 14.7003 107.085C11.1575 119.186 15.23 129.155 15.23 129.155L17.3054 135.398C17.6544 136.453 17.722 137.583 16.5875 138.374 15.1389 139.383 14.6257 141.473 15.4325 142.933 16.4961 144.857 16.0809 150.105 16.0809 150.105L17.2385 150.358 17.6438 149.598C19.0109 155.44 28.3722 153.928 28.5414 153.711 29.0012 153.125 28.1776 151.836 28.1776 151.836 28.1776 151.836 32.9005 152.456 33.6502 151.624 34.2349 150.976 33.2603 148.919 32.1766 147.293 31.0961 145.672 30.2379 144.033 29.7752 142.14L28.9467 137.583C28.8339 136.551 29.0391 134.385 29.1459 133.352L30.3072 122.144 30.9523 110.082C30.9579 109.977 30.9708 109.873 30.9909 109.771L31.6614 106.356 37.0145 103.935 36.7906 99.7559 38.1415 79.1263 38.1415 75.345C38.1415 75.345 39.3074 76.4641 39.8473 76.2326 40.1309 76.1108 36.8068 53.7102 36.8068 53.7102 37.3444 47.427 38.2467 45.8 39.1586 43.4092L49.3432 50.1555 51.7712 49.2548C53.0779 48.6417 54.3368 47.6954 55.4384 46.7627L57.9509 44.615C58.375 44.2558 62.9966 39.2909 63.3607 38.871L67.7677 33.5598C67.8079 33.5143 67.7993 33.444 67.7495 33.4097L65.7928 32.0476C65.7928 32.0476 67.6839 32.1294 68.9748 30.6367 68.9748 30.6367 71.4045 30.797 70.6548 29.0341L70.9081 28.1832 70.6538 27.0236 70.5839 26.5114C70.4698 26.1064 70.168 25.8218 69.7531 25.7515L68.9814 25.7047C68.9814 25.7047 70.7544 24.0596 71.8068 23.5563 72.8589 23.0524 73.7438 22.1368 73.4364 21.8713ZM8.87782 79.7691 9.16178 79.8496 9.18982 80.2203C9.07043 80.0742 8.96291 79.9254 8.87782 79.7691ZM10.4381 67.4669C10.4523 65.365 10.4965 60.7077 10.6261 57.4664 10.7337 54.7814 12.2448 50.3501 13.3669 47.3963 13.414 47.485 13.4394 47.5318 13.4394 47.5318 13.4394 47.5318 14.198 52.8701 14.5525 55.9598 14.9028 59.0135 10.5407 67.2733 10.4381 67.4669ZM22.2539 136.914 22.3545 125.589C24.5962 131.883 22.2539 136.914 22.2539 136.914Z" fill="#FFFFFF" transform="scale(1.00178 1)"/><path d="M32.3675 148.18C32.0974 147.653 31.8718 147.237 31.5839 146.745 31.3863 146.537 31.2089 145.697 30.8474 145.937 28.8712 147.637 26.4448 146.197 25.4682 146.111 25.2644 146.362 25.6638 146.996 25.711 147.3 25.8854 147.819 26.0659 148.355 26.15 148.895 26.6645 149.463 27.269 149.908 27.861 150.856 28.0071 151.046 28.3274 150.799 28.7584 151.076 30.2066 151.607 31.8764 151.792 33.3434 151.571 33.9447 151.074 32.9747 149.441 32.3675 148.18Z" fill="#FFFFFF" transform="scale(1.00178 1)"/><path d="M26.3102 149.865C26.1391 149.7 25.5368 149.636 25.4468 149.662 23.7367 150.112 20.4485 150.393 19.4149 148.209 19.2091 147.765 18.9802 147.304 18.7381 146.816 17.2121 143.956 16.4704 141.563 16.7695 138.779 16.6847 138.734 16.4601 138.752 16.3991 138.824 14.4097 141.179 15.7201 142.518 16.2567 144.688 16.6706 146.486 16.7576 148.209 16.5156 149.808 16.4954 149.929 16.596 150.044 16.719 150.041 16.8945 150.01 17.1181 150.144 17.2711 150.023 17.4469 149.675 17.1122 149.016 17.3965 148.611 17.4496 148.489 17.3777 148.344 17.5432 148.309 17.6013 148.29 17.7233 148.278 17.7725 148.376 18.2599 149.306 18.4129 150.343 18.8051 151.314 19.5505 152.625 21.4977 153.047 22.9122 153.359 24.65 153.759 26.4402 153.744 28.2109 153.463 28.8854 153.12 26.8139 150.236 26.3102 149.865Z" fill="#FFFFFF" transform="scale(1.00178 1)"/><path d="M37.9548 75.4654C36.1422 72.4826 35.0736 69.0506 34.04 65.7317 33.977 65.5292 33.914 65.3267 33.8507 65.1249 33.8226 65.0345 33.7359 64.9765 33.6416 64.9834 33.5473 64.9907 33.4707 65.0622 33.4569 65.1556 32.9384 68.6357 32.0588 71.5971 30.7686 74.2088 30.7528 74.2408 30.7455 74.2768 30.7482 74.3124 30.7742 74.6917 30.6268 75.004 30.297 75.2669 27.7769 77.2761 16.2613 75.4921 10.8306 73.8513 10.7693 73.8329 10.7027 73.8444 10.6512 73.8827 10.5998 73.9209 10.5694 73.9813 10.5694 74.0452 10.5711 77.2306 10.5879 79.587 10.5895 79.8479 10.5902 79.9175 10.5595 79.9828 10.5071 80.026 10.4527 80.0699 10.3827 80.088 10.3141 80.0729L9.72642 79.9479C9.64166 79.9297 9.55525 79.9673 9.51072 80.0415 9.4662 80.1157 9.47345 80.2097 9.52886 80.276 10.6964 81.6704 10.6878 81.8581 10.6321 83.0797 10.6113 83.5365 10.5852 84.1048 10.6083 84.9168 10.6195 85.1892 10.674 85.5269 10.7313 85.8844 10.8831 86.828 11.0707 87.9962 10.5503 88.4787 10.3752 88.4853 10.2149 88.4434 10.0605 88.3504 9.99521 88.3112 9.91342 88.3118 9.84878 88.3524 9.78414 88.393 9.74753 88.4662 9.75445 88.542 10.0575 91.9691 10.3201 95.6188 9.92332 99.248 9.86197 99.8308 9.82008 100.426 9.77919 101.003 9.68354 102.355 9.5846 103.755 9.23005 105.073 9.20169 105.179 9.26205 105.287 9.36627 105.319L9.44047 105.342C11.0833 105.846 12.7821 106.368 14.5004 106.725 14.5529 106.736 14.6076 106.725 14.6525 106.696 14.7072 106.66 14.7936 106.682 14.8411 106.742 14.8711 106.781 14.9137 106.807 14.9615 106.816 16.9806 107.216 19.0554 107.416 21.1682 107.416 22.7872 107.416 24.4287 107.299 26.083 107.063 29.6842 106.552 33.2785 105.495 36.7662 103.924 36.8605 103.881 36.9077 103.775 36.8757 103.676 36.1128 101.34 36.4318 98.8374 36.7401 96.4172 36.8714 95.3866 37.0073 94.321 37.0568 93.2847 37.4598 89.3662 37.6019 85.3676 37.7391 81.5006 37.8081 79.559 37.8793 77.5515 37.9829 75.5818 37.9862 75.5406 37.9759 75.5 37.9548 75.4654Z" fill="#FFFFFF" transform="scale(1.00178 1)"/><path d="M34.4981 40.876C33.7204 37.6864 31.6093 34.4058 30.2637 31.414 30.2076 31.2778 31.9846 29.4817 32.0219 29.4583 32.0255 29.456 32.0291 29.4537 32.0328 29.451 32.2386 29.3043 33.0278 29.7874 33.3431 29.9955 33.4862 30.0899 33.9157 30.2838 33.978 30.2116 34.0403 30.1393 33.973 30.0044 33.916 29.9283 33.8005 29.7749 33.6976 29.6057 33.5891 29.4266 33.3777 29.0787 32.7712 28.2835 32.7353 28.2367 31.6809 26.8627 29.7192 25.2192 29.2132 24.8459 28.9896 24.6807 28.1855 24.651 27.8663 24.7608 27.7255 24.8093 27.6387 24.8884 27.6087 24.9963 27.1588 26.609 28.1179 27.9936 28.921 29.013 28.9273 29.0219 28.9293 29.0279 28.9276 29.0285 28.8712 29.1034 28.9744 29.207 29.0341 29.2792 29.7554 30.1512 29.3099 30.9348 28.9111 31.8418 28.8049 32.0832 28.6964 32.3306 28.6064 32.5855 28.4458 32.6825 28.4273 32.8286 28.2914 32.9533 27.454 32.0077 25.7304 30.8791 23.8934 30.5714 17.4928 26.2763 18.9364 22.46 17.9852 24.2888 16.8886 25.8789 16.002 27.8663 15.941 29.641 15.9334 29.7584 16.0406 29.863 16.1584 29.8517 17.6676 29.738 20.5293 29.8686 22.1365 30.3168 22.3265 30.3699 22.5125 30.4975 22.4452 30.5041 27.0615 35.1112 30.9589 41.5785 32.3365 47.7376 32.3586 47.8366 32.4177 48.8992 32.8497 49.3587 35.4707 45.7657 35.0598 43.4003 34.4981 40.876Z" fill="#FFFFFF" transform="scale(1.00178 1)"/><path d="M67.7396 33.5601C65.6067 31.8405 63.0626 30.3494 61.7364 27.8772 61.6685 27.7485 61.4686 27.741 61.3918 27.8643 58.6454 32.0001 55.1313 37.0911 50.8583 41.0445 48.5078 40.1002 42.8489 35.942 39.6322 32.9021 39.123 32.4302 38.8542 32.0628 38.5465 31.7755 38.5208 31.7709 38.4073 31.4797 38.3701 31.3761 37.4275 29.7037 36.4041 29.9754 35.6561 29.6031 34.9895 29.3653 34.3005 29.1196 33.6386 28.8445 32.8721 28.8254 33.9295 29.7531 34.0265 30.1578 34.0374 30.2036 33.9625 30.3128 33.9239 30.2861 33.6706 30.1096 33.3596 29.9731 33.0822 29.7858 32.8029 29.6938 32.2636 29.2162 32.0001 29.4639 31.9414 29.5374 30.6294 31.0865 30.3432 31.3586 30.291 31.4236 30.2838 31.514 30.3253 31.5862 33.9579 37.7533 36.9252 43.6998 32.8768 49.6291 32.3441 48.1902 31.2739 44.2961 29.9649 41.8878 29.6341 41.279 29.2423 40.0316 29.137 39.6177 28.5586 37.3437 23.2668 31.1222 22.1193 30.3824 20.7216 30.0813 19.3529 30.045 18.188 29.9757 17.97 30.0061 17.4301 29.9682 17.1989 29.9771 17.1989 29.9771 15.5126 30.205 15.5126 30.205 15.3681 29.4355 15.2102 27.8211 15.7989 27.2317 15.972 27.0655 15.7329 26.7779 15.538 26.9234 14.1271 27.9299 11.2366 29.7617 10.4883 29.8742 9.70696 29.9916 8.63277 30.4817 8.48238 32.2043 8.46292 32.421 8.68158 33.3418 8.42169 34.3048 6.94381 39.7797 2.31691 53.3269 2.36342 56.1735 2.46929 59.3638 2.0999 77.4459 2.5524 78.2111 4.79675 78.6656 8.21919 79.276 10.2653 79.7576 11.3164 72.1512 8.43686 56.4548 12.9807 47.7548 13.2026 47.1615 13.5677 47.9372 13.5677 47.9372 14.9978 52.6901 14.6815 58.9822 12.6386 63.2898 10.4022 68.643 10.4992 67.1384 10.5688 73.1182 14.6831 74.7665 26.0985 76.8843 30.4253 74.8744 32.1914 71.0186 32.8075 68.1426 33.4038 64.4804 33.3711 64.179 33.4252 63.926 33.6584 63.5843 34.164 65.4356 38.5079 77.7576 39.9076 76.1306 38.8503 71.2943 38.3493 66.0493 37.5775 61.1912 37.406 59.9838 36.7405 55.1805 36.659 53.8701 36.6861 53.8444 37.6115 47.2663 37.6587 47.2515 38.3711 45.8373 38.7098 44.6101 38.9063 43.5487 38.9215 43.4676 39.253 43.3855 39.3176 43.427 42.087 45.268 46.6054 48.918 49.2281 50.2165 56.3388 48.1097 62.8723 39.1088 67.7396 33.5601Z" fill="#FFFFFF" transform="scale(1.00178 1)"/><path d="M73.7158 21.8169C73.479 20.6085 68.7478 22.8555 68.1384 23.3835 67.3224 21.966 65.7413 24.1388 64.9069 24.5893 63.3921 25.363 62.34 26.1582 61.9828 27.9369 61.8904 27.8409 61.8294 27.6664 61.6955 27.6295 61.7298 26.8848 61.0303 27.4471 60.8832 27.8162 60.401 28.5609 59.9093 29.2996 59.4093 30.0328 56.8935 33.8672 53.8329 37.285 50.858 40.7536 46.9092 38.4367 42.7034 35.0367 39.1748 31.951 39.0719 31.8609 38.9621 31.7758 38.8542 31.7006 38.8546 31.6997 38.8552 31.6987 38.8555 31.6974L38.8048 31.292C38.5125 30.2492 37.9202 29.7571 36.9601 29.4916 35.6287 29.0242 34.3068 28.4949 32.9325 28.1684 32.7049 27.8735 32.4691 27.585 32.2237 27.3049 32.1053 27.0342 28.9227 23.9907 29.0902 24.9039 30.3227 26.0184 31.608 27.0843 32.6258 28.4105 32.6047 28.5117 32.6386 28.6189 32.7587 28.676 33.2151 29.0289 33.4546 29.6347 33.8055 30.1007 33.4041 29.8831 32.3774 29.0434 31.9665 29.3362 31.9269 29.3607 31.888 29.3854 31.8494 29.4111 31.7567 29.3986 31.6614 29.4596 31.6545 29.55 30.4602 30.4813 29.7482 31.8636 28.7571 32.9919 29.1222 31.6726 30.2294 30.5173 29.141 29.201 29.1931 29.1318 29.2047 29.0381 29.1344 28.9421 28.1641 27.7113 27.5536 26.5447 27.801 24.9461 27.4441 24.4518 27.1677 25.5962 27.2007 25.8538 27.117 26.9009 28.0737 28.7208 28.8874 29.3132 29.6341 30.6027 28.6869 31.479 28.3386 32.7006 27.3412 31.4084 25.6945 30.9134 24.2773 30.2135 21.7846 28.9708 19.7609 26.8505 18.6603 24.2895 19.1633 23.1714 18.8579 21.8143 18.5284 20.688 18.3556 20.1768 18.0314 20.1814 18.1339 20.7665 18.3288 21.6596 18.4769 22.5791 18.3533 23.4933 17.5337 24.1962 17.0185 25.2532 16.5179 26.2034 15.0232 26.7057 13.2168 27.9448 11.9576 28.9111 10.697 29.8785 7.65192 29.7215 8.04142 32.5499 8.0434 33.0591 8.06022 33.5581 8.09023 34.0492 6.60873 38.7302 1.9937 53.5176 1.95577 56.2088 1.91224 59.2866 1.97094 77.968 1.9716 78.1563 1.97226 78.3592 2.11408 78.534 2.31263 78.5762L4.19683 78.9772C4.23146 80.1062 4.26873 81.023 4.31028 81.6675 3.93727 84.8069 4.58501 88.4487 7.3165 90.3863 7.55627 90.5813 8.63211 91.1888 9.36033 91.3448 9.48005 93.7181 9.49192 96.0699 9.21587 98.3677 9.13276 99.5194 9.03811 100.67 8.93125 101.82 8.85011 102.984 8.6143 104.182 8.83099 105.342 8.85638 105.46 8.97808 105.532 9.09648 105.536 9.47609 105.73 9.859 105.928 10.2584 106.075 11.5522 106.552 12.8774 106.944 14.2214 107.252 10.6103 118.404 14.0885 126.811 17.008 137.486 16.6138 137.558 16.3117 137.952 16.0271 138.21 15.7085 138.498 15.4123 138.772 15.1548 139.119 13.8174 140.766 14.4067 142.379 15.0951 144.137 15.3635 145.03 15.5446 145.949 15.6185 146.878 15.6594 147.392 15.6716 147.907 15.6547 148.422 15.7214 149.069 15.1181 150.551 16.135 150.578 16.471 150.934 17.4291 151.224 17.6616 150.613 17.8681 151.349 18.126 152.116 18.7398 152.612 20.7562 153.909 23.2803 154.33 25.6447 154.434 26.7439 154.451 27.8419 154.344 28.9174 154.116 29.6819 153.824 28.9728 152.789 28.8392 152.263 30.2086 152.652 31.668 152.526 33.0651 152.373 34.1096 152.323 34.574 151.387 34.2669 150.446 33.6261 148.682 32.7752 146.676 31.415 145.359 28.1268 138.19 29.8808 130.267 30.6139 122.748 31.0021 118.655 31.1941 114.549 31.4055 110.445 31.4866 109.107 31.6967 107.767 32.164 106.508 33.9572 105.932 35.7481 105.207 37.286 104.118 37.3767 104.045 37.3925 103.943 37.3632 103.851 37.3872 103.037 37.2114 102.213 37.1583 101.4 37.0337 98.8971 37.4924 96.411 37.663 93.9193 38.1062 88.0298 38.4657 82.119 38.3503 76.2118 38.8354 76.6501 39.5016 76.9822 40.1787 76.8031 40.4212 76.7388 40.5343 76.3803 40.3648 76.2012 40.3027 73.7593 39.6557 71.3589 39.3169 68.9444 38.686 65.5596 38.0218 59.128 37.3081 55.0654 37.1287 54.0439 37.1148 53.0001 37.2649 51.9741 37.7903 48.3808 38.1339 46.9204 38.2992 46.6519 38.8381 45.7769 39.1606 44.867 39.3301 43.934 39.3374 43.9396 39.3443 43.9455 39.3516 43.9511 42.1315 46.0724 44.7149 47.9395 47.7393 49.6891 48.1895 49.8999 48.9725 50.5486 49.4569 50.3626 55.5413 48.956 62.1688 40.5771 66.2644 35.9028 66.862 35.0904 67.705 34.2946 68.0341 33.3599 67.7762 32.8418 67.1437 32.6337 66.7182 32.2696 67.6255 32.0479 68.4408 31.5757 69.0318 30.8458 70.2168 31.1175 71.3936 30.2963 70.8563 29.0444 71.101 28.7343 71.1334 28.3274 71.0562 27.9517 70.9645 27.6394 71.0216 27.173 70.7623 26.958 70.9694 26.2275 70.4328 25.463 69.6423 25.5622 70.1166 25.1332 70.6139 24.7305 71.1033 24.3188 71.7587 23.6253 73.8127 22.8426 73.7158 21.8169ZM31.8428 29.9256C33.3738 32.476 34.0456 35.4367 34.0205 38.4011 33.0219 36.0123 31.7864 33.7277 30.5018 31.4856 30.9315 30.95 31.3784 30.4292 31.8428 29.9256ZM28.3475 33.2725C28.3597 33.3134 28.3752 33.3533 28.3943 33.3922 28.3079 33.4816 28.2198 33.569 28.1291 33.6541 27.9946 33.7804 28.1898 33.9618 28.3274 33.8523 29.0701 33.261 29.6591 32.5519 30.2432 31.8118 32.3444 36.5066 37.2853 43.3479 32.827 48.9032 31.6805 42.4858 27.4547 34.9021 22.68 30.6423 24.7582 30.9866 26.9016 31.6601 28.3475 33.2725ZM29.1116 39.999C24.8799 37.4562 21.1702 34.1076 18.1814 30.1779 19.4542 30.2208 20.7239 30.3537 21.9841 30.5328 24.9379 33.196 27.422 36.3988 29.1116 39.999ZM17.5643 25.2331C17.7913 24.8343 18.0535 24.4594 18.2988 24.0735 18.8397 26.5804 20.8855 28.7317 23.0023 30.1314 20.7516 29.7663 18.47 29.5325 16.195 29.7 16.2636 28.1235 16.781 26.5959 17.5643 25.2331ZM10.5404 30.1776C11.5536 30.0255 15.6564 27.0876 15.6564 27.0876 14.7953 27.9487 15.3523 30.4306 15.3523 30.4306L17.2266 30.1773C22.3934 37.066 26.8597 39.0831 28.6235 40.4093 30.0681 41.495 32.0852 47.4722 32.606 49.45 32.5265 49.6611 32.4483 49.8857 32.3728 50.1251 31.8537 51.7725 31.3827 54.4061 31.857 57.9664 31.886 58.1844 32.0265 59.2566 32.1017 59.5333 32.4945 60.9812 32.9279 62.4307 33.2092 63.5322 33.0459 64.1322 33.0021 64.7812 32.9008 65.3871 32.4299 68.4494 31.4945 71.4154 30.3253 74.2774 27.0358 76.1353 16.2613 74.7227 10.7722 73.1182 10.7729 71.5697 10.7775 69.8708 10.7887 68.1539 11.4972 66.5741 12.1466 64.9649 12.8223 63.3766 14.913 58.9687 15.3131 52.6142 13.8678 47.8297L13.667 47.4365C14.5001 45.21 15.3856 43.0438 16.0759 41.406 16.5119 40.371 16.352 38.2708 15.6683 36.0558 15.3124 34.9028 14.2956 32.1139 12.5443 31.1199 11.8976 30.7528 11.2343 30.6786 10.5734 30.8989 9.98664 31.0945 9.4131 31.5285 8.86463 32.1898 9.00084 30.6235 9.78216 30.2914 10.5404 30.1776ZM13.2412 48.5925C13.8965 51.6713 14.5977 54.8728 13.6521 57.9852 12.9401 60.4937 11.9098 62.8809 10.8151 65.2426 10.86 61.4746 10.9477 57.9878 11.1116 56.2359 11.2802 54.4341 12.1782 51.5311 13.2412 48.5925ZM2.81723 56.2213C2.85846 53.2986 8.91904 34.2804 9.33296 32.9856 10.7508 31.0931 11.7788 31.6766 12.1189 31.8695 13.1479 32.4533 14.167 34.1135 14.8451 36.3104 15.4532 38.281 15.633 40.2391 15.2821 41.0722 13.5459 45.1935 10.5843 52.6333 10.2548 56.156 9.83064 60.6913 9.90748 76.1696 9.92793 79.3173L8.69181 79.0541C7.95897 78.8354 5.87127 78.4004 4.80995 78.2276L2.83241 77.8064C2.82416 75.2217 2.77733 59.0587 2.81723 56.2213ZM7.96787 89.7623C6.78781 88.3263 6.76341 86.4289 6.5797 84.6737 6.55926 84.5616 6.39369 84.583 6.36896 84.68 6.0276 86.4652 6.53386 88.4391 7.60211 89.8992 5.77596 88.7703 5.6315 86.4237 5.6813 84.4755 5.15723 83.6711 5.21957 86.3554 5.34556 86.8145 5.35149 86.8307 5.3571 86.8468 5.36304 86.863 5.3571 86.8518 5.35116 86.8353 5.34556 86.8145 4.76542 85.2215 4.69583 83.4686 4.7331 81.7813 4.80665 81.741 4.86535 81.6741 4.87558 81.5893 4.97584 80.7753 5.00486 79.9634 5.00717 79.1494L8.81417 79.9601C9.3003 80.7411 10.2419 81.3179 10.2627 82.3129 10.3003 82.8149 10.2198 83.3169 10.1825 83.8162 10.0684 85.2228 10.637 86.6054 10.3587 88.0041 10.3428 87.9952 10.3079 87.9672 10.2947 87.955 9.42332 87.1552 9.29503 85.8168 9.00051 84.7248 8.95071 84.4085 8.90091 84.0952 8.73996 83.8122 8.6552 83.6285 8.34485 83.6955 8.31252 83.8828 8.2901 84.0131 8.2647 84.1364 8.26602 84.2657 7.41841 85.7895 7.98733 87.7719 8.67531 89.2538 8.87914 89.6723 9.14134 90.0786 9.31581 90.515 9.32009 90.5885 9.32471 90.6624 9.329 90.7359 8.74392 90.6195 8.31022 90.2409 7.96787 89.7623ZM9.09285 87.3811C9.13639 87.9457 9.17959 88.5104 9.21983 89.074 8.67037 87.9619 8.32836 86.7109 8.48501 85.4685 8.61793 85.9471 8.79734 86.7156 9.09285 87.3811ZM17.4235 138.072C18.4505 138.151 17.8526 136.708 17.7599 136.135 17.3886 134.654 16.937 133.195 16.5096 131.73 13.7303 123.414 12.7132 116.005 14.9968 107.421 18.1471 108.067 21.3829 108.248 24.5893 107.993 22.3004 112.688 22.3456 118.099 21.8143 123.198 21.1962 130.593 21.2952 138.081 23.9109 145.116 24.3914 146.543 24.6276 148.079 25.2832 149.436 23.8729 149.775 22.2074 149.935 20.8598 149.307 19.87 148.742 19.4133 147.633 18.9637 146.642 17.8463 143.993 15.883 140.937 17.4235 138.072ZM22.6579 126.885C22.9712 129.348 22.9828 131.848 22.6922 134.314 22.6906 134.328 22.6889 134.341 22.6873 134.355 22.5593 131.866 22.5679 129.378 22.6579 126.885ZM23.4346 153.269C22.0019 152.938 19.7925 152.592 18.9928 151.239 18.6023 150.269 18.4443 149.215 17.9515 148.282 17.7748 147.928 17.1468 148.109 17.22 148.512 16.9908 148.917 17.0868 149.433 17.1336 149.874 16.9984 149.849 16.8513 149.837 16.7161 149.839 16.977 148.115 16.8444 146.335 16.4539 144.64 15.8375 142.274 14.6848 141.179 16.5545 138.955 15.7319 141.978 17.975 145.585 19.2338 148.3 19.8328 149.399 20.965 150.111 22.2199 150.137 23.3129 150.187 24.4432 150.158 25.5022 149.857 25.6331 150.088 25.9455 150.12 26.1684 150.009 27.0962 150.919 27.7898 152.023 28.1776 153.264 26.6114 153.52 24.9996 153.534 23.4346 153.269ZM31.9375 147.79C32.3068 148.54 33.4582 150.496 33.2735 151.248 32.0084 151.472 30.5767 151.359 29.3135 151.058 28.8696 150.976 28.4923 150.611 28.0282 150.741 27.5556 150.05 27.017 149.371 26.3498 148.863 26.2116 147.971 25.833 147.135 25.5985 146.266 27.2594 147.041 29.4781 147.386 30.9797 146.09 31.2858 146.652 31.6363 147.219 31.9375 147.79ZM30.7894 107.899C30.6245 108.467 30.5133 109.05 30.4312 109.635 30.1126 113.632 30.1773 117.66 29.7323 121.653 29.1944 129.525 26.7004 138.194 30.576 145.572 30.5153 145.982 29.7515 146.165 29.4088 146.296 28.0473 146.673 26.6315 146.223 25.4026 145.629 24.5395 142.688 23.4739 139.788 22.9366 136.763 23.2522 135.251 23.3848 133.696 23.4406 132.154 23.5158 129.592 23.311 127.016 22.7737 124.509 23.2292 118.929 23.4904 113.21 25.4343 107.916 27.4013 107.711 29.3498 107.335 31.2449 106.783 31.0605 107.141 30.9022 107.51 30.7894 107.899ZM36.8559 93.2689C36.691 96.7286 35.5779 100.351 36.6841 103.738 29.9312 106.781 22.3225 108.066 15.0021 106.617 14.8926 106.477 14.6904 106.429 14.5426 106.526 12.8082 106.166 11.1199 105.645 9.42629 105.126 9.93816 103.223 9.92035 101.22 10.1255 99.2691 10.518 95.6762 10.2729 92.0994 9.95696 88.5239 10.1548 88.643 10.3781 88.702 10.6321 88.6759 11.5318 87.9632 10.854 85.9243 10.8115 84.9085 10.7248 81.8746 11.3408 82.1233 9.68519 80.1461L10.2729 80.2711C10.3026 80.2773 10.3326 80.2806 10.3626 80.2806 10.4609 80.2806 10.5572 80.247 10.6347 80.1837 10.736 80.1012 10.794 79.9772 10.793 79.8466 10.7924 79.7797 10.7742 77.3546 10.7726 74.0452 17.0538 75.9433 31.2076 78.0145 30.9513 74.2985 32.3613 71.444 33.1897 68.3267 33.6577 65.1856 34.7636 68.7254 35.846 72.3853 37.7823 75.571 37.472 81.463 37.4608 87.3877 36.8559 93.2689ZM67.5384 33.5825C62.6718 38.8536 56.2834 47.8887 49.2686 49.8761 46.5952 48.3217 42.086 45.0833 39.5109 43.3123 39.4822 43.2925 39.4541 43.274 39.4274 43.2569 39.81 39.6105 38.1184 35.6567 37.9143 32.0463 37.9341 31.7234 37.4568 31.7383 37.4205 32.0463 37.2322 34.0852 38.1108 36.0185 38.3905 38.0135 39.0561 41.8875 39.2084 43.4788 37.408 47.0536 37.4014 47.0533 37.3938 47.0533 37.3853 47.0533L36.2721 53.8837C36.347 55.1425 36.9394 59.9327 37.1165 61.1804 37.8876 66.0338 38.4403 70.9401 39.4934 75.7408 37.975 74.5271 37.4308 72.4876 36.6778 70.7666 35.3447 67.5266 33.9836 63.3004 32.9477 59.4403 32.8174 58.9545 32.4276 57.2279 32.3916 56.8387 32.1241 53.9377 32.4503 51.7412 32.9882 50.3643 33.7382 48.4441 36.3721 45.6582 34.5129 39.7922 34.85 39.094 34.5786 38.0056 34.5957 37.2253 34.4255 34.5552 33.7 31.8477 32.1043 29.6661 32.1357 29.6232 32.134 29.6252 32.165 29.5823 32.7438 29.7831 33.2524 30.1595 33.8322 30.3557 33.8995 30.481 34.1135 30.5371 34.1927 30.3883 34.3837 29.987 33.7385 29.4009 33.5608 29.0318 34.3945 29.3781 35.2501 29.671 36.1003 29.9777 36.1003 29.9777 37.5798 30.1529 38.1854 31.4612 38.1748 31.5077 38.2045 31.5908 38.2873 31.7188 38.2906 31.7287 38.2945 31.7383 38.2978 31.7481 38.3348 31.8629 38.3968 31.9318 38.4667 31.9615 38.6712 32.2148 38.999 32.5684 39.4908 33.0469 42.5854 36.0597 48.2696 40.0432 50.6802 41.2589 50.854 41.3397 51.0057 41.2424 51.0503 41.1088 55.2075 37.3381 58.4433 32.6169 61.56 27.9771 62.9287 30.391 65.3066 32.0364 67.5384 33.5825ZM70.2363 30.048C69.7449 30.3596 69.0879 30.1387 68.5945 29.9085 68.578 29.9009 68.5747 29.893 68.5892 29.8963 69.2643 30.0556 69.9942 29.7736 70.5361 29.3742 70.5707 29.6407 70.4665 29.8745 70.2363 30.048ZM70.542 27.3294C70.5862 27.6846 70.6977 28.0536 70.6545 28.3986 70.4286 29.3478 68.955 29.7413 68.2637 29.0566 69.1377 28.6179 69.8633 28.0068 70.542 27.3294ZM69.8656 26.0299C70.1453 26.0256 70.2716 26.273 70.324 26.5137 70.4668 27.0127 69.9243 27.3366 69.5928 27.6206 68.9349 28.176 68.2043 28.7014 67.3343 28.8452 67.3046 27.5553 70.0687 26.5952 69.391 26.051 69.5427 26.0029 69.7073 26.0038 69.8656 26.0299ZM72.7597 22.7565C71.7673 23.4696 70.6317 23.9656 69.7271 24.801 69.3626 25.1025 68.9952 25.4046 68.6934 25.7703 68.5242 25.9956 68.8075 26.2746 69.0176 26.056 69.0229 26.0639 69.0288 26.0715 69.0351 26.0787 68.4058 26.5141 67.7505 26.959 67.2726 27.5675 66.989 27.9405 66.3468 29.3669 67.2917 29.3237 67.2499 29.9889 67.9019 30.5249 68.4975 30.7155 67.9566 31.2508 67.2096 31.5714 66.4629 31.6891 66.2987 31.6878 66.0896 31.6433 65.9395 31.6977 64.6226 30.7106 63.3578 29.6261 62.3146 28.3537 62.6741 27.1005 63.2667 25.9405 64.5237 25.3967 65.5398 24.9079 66.2677 24.0148 67.2198 23.4416 67.7291 23.2117 67.8227 23.7341 67.675 24.1101 67.3379 24.8657 66.6249 25.3782 66.1691 26.054 65.646 26.4705 65.7479 27.3389 65.6028 27.9514 65.4567 28.5764 65.142 29.1489 64.7252 29.6341 64.6064 29.7789 64.4409 29.9184 64.4574 30.1205 64.6483 30.6618 65.2802 29.9243 65.4303 29.6674 65.9138 28.9992 66.173 28.1829 66.1987 27.3607 66.2156 26.9356 66.1704 26.3792 66.6212 26.1628 66.678 26.1358 66.6994 26.085 66.6968 26.0339 67.3158 25.4211 68.1034 24.7275 68.2037 23.809 69.4992 23.1995 70.7653 22.5422 72.1597 22.1853 72.5083 22.118 72.8866 21.9211 73.2389 21.9152 73.6844 22.0089 72.8741 22.6714 72.7597 22.7565Z" transform="scale(1.00178 1)"/><path d="M-1154.76-223.926C-1154.84-227.814-1156.2-231.206-1159.52-233.608-1159.73-233.761-1160.05-233.687-1160.22-233.512-1160.38-233.481-1160.51-233.379-1160.59-233.236-1162.55-229.653-1164.62-226.128-1166.78-222.663-1168.18-220.424-1169.87-218.183-1170.09-215.469-1170.13-215.417-1169.11-214.834-1168.97-215.27-1168.46-215.256-1167.96-215.126-1167.47-214.976-1166.29-214.604-1165.08-214.237-1163.87-213.954-1159.88-212.895-1155.6-214.242-1155.28-218.892-1154.85-219.495-1154.6-222.172-1154.67-223.003L-1154.76-223.926Z" fill="#FFFFFF" transform="matrix(1.00178 0 0 1 1189.76 237.793)"/><path d="M-1152.24-213.459C-1152.81-216.109-1153.17-218.792-1153.49-221.48-1153.65-222.782-1153.78-224.086-1153.92-225.389-1154.06-226.603-1154.22-227.82-1154.53-229.001-1154.83-230.099-1155.25-231.186-1155.89-232.134-1156.49-233.017-1157.23-233.79-1158.09-234.42-1159.79-235.676-1161.96-236.344-1164.06-236.122-1164.38-236.088-1164.69-236.095-1164.72-236.092-1173.3-235.312-1175.32-220.387-1175.51-217.378-1175.52-217.143-1175.53-216.91-1175.54-216.676-1175.61-216.154-1175.65-215.631-1175.68-215.106-1175.7-214.499-1175.69-213.892-1175.63-213.287-1175.58-212.669-1175.51-212.034-1175.25-211.465-1175.1-211.115-1167.71-211.595-1167.64-212.008-1167.47-212.847-1167.41-213.702-1167.45-214.554-1167.47-214.961-1167.52-215.366-1167.61-215.764-1167.63-215.873-1167.66-216.078-1167.72-216.239-1167.04-217.519-1166.3-218.761-1165.54-219.99-1163.95-222.548-1162.27-225.058-1160.97-227.782-1160.32-229.147-1159.68-230.596-1159.37-232.092L-1159.32-232.082C-1159.33-232.063-1159.32-232.042-1159.31-232.029-1157.9-231.055-1156.96-229.579-1156.35-227.998-1155.63-226.15-1155.29-224.179-1155.34-222.199-1155.42-219.066-1156.61-215.193-1159.97-214.203-1160.74-213.977-1161.56-213.913-1162.35-214.078-1162.72-214.153-1163.08-214.279-1163.42-214.454-1163.79-214.652-1164.09-214.931-1164.44-215.161-1164.76-215.371-1165.14-214.961-1164.95-214.65-1164.54-213.962-1163.68-213.542-1162.93-213.335-1162.13-213.114-1161.29-213.104-1160.48-213.244-1160.42-213.255-1160.36-213.267-1160.3-213.279-1160.28-213.068-1160.19-212.867-1160.05-212.708-1159.99-212.632-1159.91-212.567-1159.82-212.516-1159.81-212.317-1159.68-212.117-1159.47-212.073-1158.36-211.842-1153.74-212.449-1152.63-212.78-1152.33-212.869-1152.18-213.161-1152.24-213.459" transform="matrix(1.00178 0 0 1 1189.76 237.793)"/><path d="M25.2083 19.5881C25.2083 19.5881 26.7528 18.9393 27.2918 19.0825 27.585 19.1603 27.737 19.4782 27.737 19.4782 27.737 19.4782 28.0724 19.1428 28.4296 19.22 28.6763 19.2731 29.3036 19.841 29.3036 19.841 29.3036 19.841 29.1661 20.748 28.2977 21.2097 27.6288 21.5653 26.4672 21.402 25.868 20.7315 25.425 20.2355 25.2083 19.5881 25.2083 19.5881Z" fill="#FFFFFF" transform="scale(1.00178 1)"/><path d="M29.3857 19.7701C29.3115 19.6567 29.1796 19.5564 29.0787 19.4772 28.9256 19.3572 28.762 19.2388 28.5823 19.1629 28.2713 19.0317 27.9962 19.1016 27.7881 19.3166 27.6259 18.9647 27.1793 18.8457 26.7987 18.9057 26.5408 18.9466 26.2888 19.0333 26.0454 19.125 25.7595 19.2325 25.4639 19.3173 25.1797 19.4271 25.1734 19.4294 25.1704 19.4347 25.1655 19.4387 25.0695 19.4627 25.0164 19.5937 25.1242 19.6563 25.3235 20.4083 25.8904 21.0907 26.618 21.37 27.5652 21.7341 28.6103 21.4297 29.173 20.5864 29.266 20.4469 29.3544 20.2945 29.4045 20.1332 29.421 20.0798 29.4302 20.028 29.4375 19.9726 29.4382 19.9677 29.4398 19.9574 29.4418 19.9459 29.4438 19.9433 29.4467 19.9413 29.4487 19.9386 29.4903 19.8819 29.449 19.7939 29.3857 19.7701ZM26.5559 19.372C26.7449 19.3186 26.9468 19.2652 27.1443 19.2985 27.3623 19.3351 27.5051 19.5135 27.6892 19.6197 27.7396 19.6487 27.8129 19.6253 27.8386 19.5742 28.145 19.2939 28.4045 19.3466 28.733 19.5775 28.8257 19.6428 28.9517 19.7516 29.0839 19.8206 28.958 19.8582 28.8326 19.903 28.7083 19.934 28.4992 19.9858 28.2832 20.0132 28.0681 20.0231 27.6146 20.0439 27.1605 19.9819 26.7179 19.8865 26.3657 19.8107 25.9811 19.7134 25.6302 19.5923 25.9451 19.566 26.2621 19.4548 26.5559 19.372ZM28.8936 20.4719C28.5793 20.9228 28.0965 21.2087 27.5431 21.2318 26.5193 21.2747 25.8719 20.6296 25.4339 19.8169 25.8482 20.0198 26.2825 20.1807 26.7304 20.2902 27.1961 20.4037 27.6842 20.4624 28.1634 20.4297 28.4279 20.4119 28.7535 20.3674 29.0282 20.249 28.9873 20.3249 28.9438 20.4001 28.8936 20.4719Z" transform="scale(1.00178 1)"/><path d="M27.1325 17.5155C27.7073 17.8516 28.6859 17.7913 29.0348 17.1376 29.1397 16.9407 29.0717 16.7916 28.954 16.6277 28.8306 16.4559 28.7442 16.2567 28.6552 16.066 28.5114 15.7573 28.361 15.4374 28.1717 15.1706 28.1225 15.1013 28.0391 15.105 27.9893 15.1706 27.8481 15.3563 27.9626 15.5489 28.0516 15.7412 28.1849 16.0288 28.3452 16.3032 28.4721 16.5934 28.5361 16.7392 28.5892 16.7797 28.4639 16.8797 28.3742 16.9506 28.2749 17.0096 28.1661 17.0449 27.9227 17.1241 27.6684 17.1049 27.4454 16.9793 27.0975 16.783 26.7871 17.3137 27.1325 17.5155Z" transform="scale(1.00178 1)"/><path d="M24.2773 12.0278C24.6206 11.9619 24.9234 12.0506 25.2126 12.2363 25.3294 12.3115 25.455 12.3771 25.5662 12.4609 25.6813 12.5479 25.7278 12.6736 25.833 12.7663 25.9339 12.8553 26.0721 12.8144 26.118 12.6911 26.2446 12.3484 25.8267 12.0921 25.585 11.9441 25.2153 11.7178 24.8772 11.5374 24.4283 11.5796 23.7001 11.6479 23.121 12.1123 22.6658 12.6515 22.5161 12.8289 22.7654 13.0862 22.9241 12.9097 23.2928 12.4991 23.7202 12.1344 24.2773 12.0278Z" transform="scale(1.00178 1)"/><path d="M29.3468 12.3728C29.5968 12.0123 30.2624 12.1076 30.575 12.3125 30.7561 12.4309 30.891 12.604 30.9711 12.8045 31.0433 12.9853 31.0344 13.2046 31.2211 13.3101 31.2735 13.3398 31.3402 13.3309 31.3834 13.2894 31.5921 13.0865 31.4322 12.7059 31.3204 12.4866 31.1753 12.2016 30.9276 11.9728 30.639 11.8385 30.1284 11.6007 29.3356 11.6205 29.0704 12.2112 28.9866 12.3982 29.2277 12.5443 29.3468 12.3728Z" transform="scale(1.00178 1)"/><path d="M31.3778 14.0727C31.2716 14.2844 31.1258 14.387 30.9507 14.4157 31.0163 14.3075 31.0638 14.1887 31.0862 14.0631 31.1228 13.8583 30.8125 13.7686 30.7709 13.9763 30.7439 14.1116 30.6908 14.2369 30.5951 14.3381 30.58 14.354 30.5615 14.3672 30.5437 14.3807 30.3577 14.3378 30.166 14.3408 29.9774 14.3659 29.5783 14.4186 28.9923 14.6788 29.0292 15.1647 29.0364 15.2596 29.1456 15.3513 29.2386 15.2847 29.3 15.2405 29.3534 15.1897 29.4052 15.1379 29.4052 15.2207 29.4134 15.3005 29.4276 15.3665 29.486 15.6336 29.6585 15.9407 29.9362 16.0261 30.2248 16.1152 30.4902 15.9163 30.5648 15.6402 30.6443 15.3467 30.5193 15.0802 30.482 14.7943 30.482 14.7923 30.4833 14.7906 30.4833 14.7887 30.4995 14.7883 30.5153 14.786 30.5315 14.7824 30.7198 14.8121 30.8929 14.8454 31.0931 14.7534 31.3395 14.6399 31.512 14.4176 31.5968 14.1653 31.64 14.0374 31.4391 13.951 31.3778 14.0727Z" transform="scale(1.00178 1)"/><path d="M25.4214 14.942C25.5006 15.0017 25.5794 15.0627 25.6721 15.1145 25.7588 15.1627 25.8891 15.1033 25.8815 14.9945 25.8459 14.4783 25.2156 14.2936 24.7829 14.2798 24.5771 14.2732 24.3551 14.2887 24.1599 14.3563 24.1345 14.3431 24.1094 14.3299 24.0896 14.3137 23.9861 14.2293 23.9115 14.1172 23.8716 13.9902 23.8086 13.7907 23.4966 13.8741 23.5563 14.0773 23.5956 14.2099 23.6675 14.3289 23.7549 14.4354 23.552 14.4354 23.3673 14.3586 23.2245 14.1426 23.1388 14.013 22.9498 14.1248 23.0174 14.2636 23.1335 14.5021 23.3433 14.6881 23.5959 14.7742 23.8172 14.8497 24.0036 14.8019 24.2034 14.754 24.2473 14.7626 24.2898 14.7613 24.3294 14.7468 24.2519 15.1607 24.3588 16.2118 24.9801 16.1096 25.4478 16.0327 25.5009 15.4163 25.4214 14.942Z" transform="scale(1.00178 1)"/></g></svg>